<svg id="Layer_1" xmlns="http://www.w3.org/2000/svg" viewBox="-243 108.1 471.8 345.9"><style>.st0{fill:#e0e0e0}.st1{fill:#f3ac57}.st2{opacity:.56}.st3{fill:#e0892b}.st4{fill:#bfbfbf}.st5{fill:#c1c1c1}.st6{fill:#848484}.st7{fill:#ddd}.st8{fill:#6d6d6d}.st9{fill:none}.st10{opacity:.5;fill:#848484}.st11{fill:#0855b2}.st12{fill:#0a69ec}.st13{fill:#353e44}.st14{fill:#7f8a94}.st15{fill:#aad1e7}.st16{fill:#c6eaf7}.st17{fill:#7baabf}.st18{opacity:.1;fill:#404040}.st19{fill:#fff}.st20{fill:#2e2e2e}.st21{fill:#4d4d4d}.st22{fill:#404040}.st23{fill:#646c70}.st24{fill:#ce7925}.st25{fill:#a85c18}.st26{fill:#636362}.st27{fill:#474747}.st28{opacity:.5;fill:#a85c18}.st29{fill:#a0a0a0}.st30{opacity:.4;fill:#ce7925}.st31{opacity:.2}</style><path class="st0" d="M-242.5 346.2c0 2.7 19.4 4.8 43.3 4.8s31.5-2.2 31.5-4.8c0-2.7-7.6-4.8-31.5-4.8s-43.3 2.2-43.3 4.8z"/><path class="st1" d="M-210.1 346l2.9-6.5-6-6.7-9.5 1.1-2.9 6.5c-.2.4-.6.7-1.1.7-.5 0-1-.2-1.2-.6-2.3-3.8-2.6-8.2-.9-12.2 2.2-4.9 7-8 12.5-8.8l16-36.1c-3.4-3.9-4.5-9.3-2.3-14.1 1.8-3.9 5.4-7 10-8.3.5-.1 1 0 1.4.3.4.3.5.8.3 1.2l-2.9 6.5 6 6.7 9.5-1.1 2.9-6.5c.2-.4.6-.7 1.1-.7.5 0 1 .2 1.2.6 2.3 3.8 2.6 8.2.9 12.2-2.3 5.2-7.6 8.4-13.5 8.9l-15.6 35.3c3.9 4 5.2 9.7 3 14.8-1.8 3.9-5.4 7-10 8.3-.5.1-1 0-1.4-.3-.5-.3-.6-.8-.4-1.2z"/><g class="st2"><path class="st3" d="M-173.3 268.2c-.2-.4-.7-.6-1.2-.6s-1 .3-1.1.7l-2.9 6.5-9.5 1.1-.5-.6-26.6 57.7 1.8-.2 6 6.7-2.9 6.5c-.2.4-.1.9.3 1.2.4.3.9.5 1.4.3 4.6-1.3 8.2-4.3 10-8.3 2.3-5.2.9-10.8-3-14.8l15.6-35.3c5.9-.5 11.2-3.7 13.5-8.9 1.8-3.8 1.4-8.2-.9-12z"/></g><path class="st0" d="M184.1 341.2c0 13.5-37.6 24.4-182.2 24.4-148 0-182.2-10.9-182.2-24.4 0-13.5 81.6-24.4 182.2-24.4s182.2 10.9 182.2 24.4z"/><path class="st0" d="M214.1 329.9c0 5.8-18.2 10.5-43.2 10.5s-45.3-4.7-45.3-10.5 20.3-10.5 45.3-10.5 43.2 4.7 43.2 10.5z"/><path class="st4" d="M160.5 312.6c19.2 0 34.8 3.3 34.8 7.4v6.8c0 4.1-15.6 7.4-34.8 7.4s-34.8-3.3-34.8-7.4V320c-.1-4.1 15.5-7.4 34.8-7.4z"/><path class="st5" d="M160.5 312.6c19.2 0 34.8 3.3 34.8 7.4v6.8c0 4.1-15.6 7.4-34.8 7.4s-34.8-3.3-34.8-7.4V320c-.1-4.1 15.5-7.4 34.8-7.4z"/><ellipse class="st6" cx="160.5" cy="320" rx="34.8" ry="7.4"/><path class="st4" d="M160.5 253.8c17.2 0 31.1 3 31.1 6.6v56.5c0 3.6-13.9 6.6-31.1 6.6s-31.1-3-31.1-6.6v-56.5c0-3.7 13.9-6.6 31.1-6.6z"/><path class="st5" d="M160.5 253.8c17.2 0 31.1 3 31.1 6.6v56.5c0 3.6-13.9 6.6-31.1 6.6s-31.1-3-31.1-6.6v-56.5c0-3.7 13.9-6.6 31.1-6.6z"/><path class="st7" d="M149.1 254.2V323c-11.5-1-19.7-3.3-19.7-6.1v-56.5c0-2.8 8.2-5.2 19.7-6.2z"/><path class="st8" d="M160.5 299.9c20.8 0 37.7-16.7 37.7-37.2 0-1-.8-1.9-1.9-1.9-1 0-1.9.8-1.9 1.9 0 18.4-15.2 33.4-33.9 33.4s-33.9-15-33.9-33.4c0-1-.8-1.9-1.9-1.9-1 0-1.9.8-1.9 1.9 0 20.5 16.9 37.2 37.7 37.2z"/><path class="st9" d="M161.2 298.9c9.6 0 18.4-3.4 24.9-9v-17.6c-5.1 1.3-13.8 2.7-26.9 2.7-23 0-29.9-4.4-29.9-4.4v11.1c6.2 10.3 18.2 17.2 31.9 17.2z"/><path class="st10" d="M191.7 269h-62.3l-.1 1.6s6.8 4.4 29.9 4.4c13.1 0 21.8-1.5 26.9-2.7v17.6c-6.5 5.6-15.3 9-24.9 9-13.7 0-25.6-6.9-31.9-17.2v6.7c7.4 8.7 19 14.2 31.9 14.2 9.4 0 18-2.9 24.9-7.8v25.8s4.7-1.3 5.4-3.4c0-.1.1-.2.1-.3.2-1.2.1-14.8.1-26.9v-6.1c0-7-.1-12.6-.1-13.3.1 0 .2-.1.2-.1V269z"/><path class="st4" d="M160.5 251.4c19.2 0 34.8 3.3 34.8 7.4v6.8c0 4.1-15.6 7.4-34.8 7.4s-34.8-3.3-34.8-7.4v-6.8c-.1-4.1 15.5-7.4 34.8-7.4z"/><ellipse class="st6" cx="160.5" cy="258.8" rx="34.8" ry="7.4"/><ellipse class="st6" cx="160.5" cy="258.8" rx="34.8" ry="7.4"/><path class="st5" d="M160.5 251.4c19.2 0 34.8 3.3 34.8 7.4v6.8c0 4.1-15.6 7.4-34.8 7.4s-34.8-3.3-34.8-7.4v-6.8c-.1-4.1 15.5-7.4 34.8-7.4z"/><path class="st6" d="M125.6 258.8c0-4.1 15.6-7.4 34.8-7.4s34.8 3.3 34.8 7.4c0 1.5-2.1 2.9-5.7 4-.5-3.2-13.4-5.8-29.2-5.8s-28.7 2.6-29.2 5.8c-3.4-1.1-5.5-2.5-5.5-4z"/><path class="st11" d="M134.1 260.5c6.4 1.6 15.8 2.6 26.4 2.6 10.6 0 20-1 26.4-2.6 1.7.7 2.7 1.5 2.8 2.4-6.2 2-17 3.3-29.2 3.3s-22.9-1.3-29.2-3.3c.1-.9 1.1-1.7 2.8-2.4z"/><path class="st12" d="M134.1 260.5c4.7-2 14.7-3.4 26.4-3.4s21.7 1.4 26.4 3.4c-6.4 1.6-15.8 2.6-26.4 2.6-10.6 0-20-1-26.4-2.6z"/><path class="st7" d="M160.3 251.3c-19.3 0-34.9 3.3-34.9 7.5 0 4.1 15.6 7.5 34.9 7.5s34.9-3.3 34.9-7.5c0-4.1-15.6-7.5-34.9-7.5zm.7 13.3c-17.8 0-32.3-2.7-32.3-6s14.4-6 32.3-6c17.8 0 32.3 2.7 32.3 6-.1 3.3-14.5 6-32.3 6z"/><g><path class="st12" d="M165.4 276.6c-1.1 0-2-.9-2-2v-9.2c0-1.1.9-2 2-2s2 .9 2 2v9.2c-.1 1.1-1 2-2 2z"/><path class="st11" d="M165.3 276.6c1.1 0 2-.9 2-2v-9.2c0-1.1-.9-2-2-2v13.2c0 .1.2 0 0 0z"/><g><path class="st12" d="M171.3 281.4c-1.1 0-2-.9-2-2v-14.5c0-1.1.9-2 2-2s2 .9 2 2v14.5c0 1.1-.9 2-2 2z"/><path class="st11" d="M171.3 281.4c1.1 0 2-.9 2-2v-14.5c0-1.1-.9-2-2-2v18.5"/></g></g><path class="st8" d="M160.5 299.9c-20.8 0-37.7-16.7-37.7-37.2 0-1 .8-1.9 1.9-1.9 1 0 1.9.8 1.9 1.9 0 18.4 15.2 33.4 33.9 33.4v3.8z"/><g><path class="st13" d="M-113.7 219.4H-169c-1.7 0-3.1 1.4-3.1 3.1v122.8c0 1.7 1.4 3.1 3.1 3.1h55.3c1.7 0 3.1-1.4 3.1-3.1V222.5c0-1.7-1.4-3.1-3.1-3.1zm-.2 24.1V333H-169v-98.2h55.1v8.7z"/><circle class="st14" cx="-141.4" cy="227.1" r="1.5"/><path class="st14" d="M-135.3 340.7c0 1.7-1.4 3.1-3.1 3.1h-6.1c-1.7 0-3.1-1.4-3.1-3.1 0-1.7 1.4-3.1 3.1-3.1h6.1c1.8 0 3.1 1.4 3.1 3.1z"/><path class="st15" d="M-165.6 252.4h48.1v40.7h-48.1z"/><path class="st16" d="M-165.6 252.4h48.1v26h-48.1z"/><path class="st12" d="M-165.6 237.4h48.1v12.1h-48.1z"/><path class="st15" d="M-165.6 296.8h48.1V333h-48.1z"/><path class="st16" d="M-165.6 296.8h48.1v26h-48.1z"/><path class="st17" d="M-161.8 281.6h38.3v2.7h-38.3zM-161.8 286.7h21.6v2.7h-21.6zM-161.8 326.1h38.3v2.7h-38.3z"/></g><path class="st18" d="M-113.7 245.9l-55.5 55.5V333h55.3z"/><g><path class="st19" d="M-99.4 175.7h209v117.1h-209z"/><path class="st20" d="M114.1 300.7h-215.6l-35.2 48.6h286z"/><path class="st21" d="M26.9 311h-19v3.4h19.6l-.4-3.4M4.6 306.7h-18.5l-.5 3.4H4.7v-3.4M26.1 302.8H7.8v3h18.6l-.4-3M46.3 302.8H29.1l.4 3h17.8l-.8-3M26.5 306.7H7.9v3.4H27l-.5-3.4M-16.9 306.7H-35l-.8 3.4h18.2l.5-3.4M-17.8 311h-18.3l-.9 3.4h18.8l.5-3.4M4.6 311h-19.1l-.5 3.4H4.7V311M4.6 302.8h-18l-.4 3H4.7l.1-3M47.6 306.7H29.7l.4 3.4h18.3l-.8-3.4M90.6 306.7H71.7l1.4 3.4h19.1l-1.8-3.4M-81 306.7h-18.6l-2.2 3.4h19.1l1.8-3.4M-83.1 311h-19.4l-2.4 3.4h19.7l1.9-3.4M48.9 311H30.3l.5 3.4h18.8l-.9-3.4M109.5 302.8H91.2l1.8 3h18.5l-2.1-3M67.8 302.8H49.5l.9 3H69l-1.3-3M71.2 311H51.9l1 3.4h19.6l-1.4-3.4M69.5 306.7H50.7l.9 3.4h19.1l-1.3-3.4M-16.5 302.8h-17.4l-.8 3h17.8l.4-3M92.7 311H73.5l1.5 3.4h19.6l-1.9-3.4M95.3 315.3H75.4l1.5 3.9h20.2l-1.9-3.9M115.1 311H95.9l1.9 3.4h19.7l-2.4-3.4M88 302.8H70l1.3 3h18.6l-1.7-3M27.8 315.3H7.9l.1 3.9h20.2l-.5-3.9M73 315.3H53.2l1 3.9h20.2l-1.5-3.9M49.7 315.3H31l.5 3.9h19.4l-1-3.9M-85.7 315.3h-19.9l-2.5 3.9h20.2l2-3.9M118.1 315.3H98.5l2 3.9h20.2l-2.5-3.9M-78.8 302.8h-18l-2.1 3h18.5l1.8-3M112.1 306.7H93.5l1.8 3.4h19.1l-2.2-3.4M-40.6 315.3h-19.7l-1.5 3.9h20.2l1-3.9M4.6 315.3h-19.7l-.5 3.9H4.6v-3.9M-37.1 302.8h-18l-1.3 3h18.6l.9-3M-39.3 311h-19.2l-1.4 3.4h19.6l1-3.4M-61.6 311h-18.5l-1.9 3.4h18.8l1.5-3.4M-59.9 306.7h-17.9l-1.8 3.4h18.3l1.4-3.4M-38 306.7h-18.8l-1.3 3.4H-39l.9-3.4M-18.2 315.3h-19.1l-1 3.9h19.4l.5-3.9M-63.8 315.3h-18.8l-1.9 3.9h19.3l1.6-3.9M28.2 320H8v3.9h20.8l-.5-3.9M-19.1 320h-19.5l-1 3.9h19.9l.6-3.9M4.6 320h-20.3l-.5 3.9H4.6V320M-88.7 320h-20.2l-2.6 3.9h20.8l2.2-3.9M51 320H31.7l.6 3.9h19.9l-1-3.9M74.7 320H54.6l1.1 3.9h20.8l-1.6-3.9M97.9 320H77.4l1.6 3.9h20.8l-2-3.9M100.5 325.2H79.6l1.7 3.9h21.4l-2.2-3.9M121.6 320h-20.5l2.2 3.9h20.8l-2.6-3.9M76.8 325.2H56l1.2 3.9h21.4l-1.7-3.9M-91.3 325.2h-21l-2.8 3.9h21.4l2.3-3.9M125 325.2h-21l2.3 3.9h21.4l-2.8-3.9M-43.6 325.2h-20.7l-1.7 3.9h21.4l1.2-3.9M-41.9 320h-20.4l-1.6 3.9h20.8l1.1-3.9M-65.5 320h-19.6l-2.1 3.9h19.9l1.6-3.9M52.3 325.2h-92.2l-1.1 3.9h94.6l-1.1-3.9M-67.7 325.2h-20.2l-2.2 3.9h20.5l1.8-3.9M-58.2 302.8h-17.4l-1.7 3h17.8l1.3-3"/><path class="st22" d="M54 331.2h-95.5l-4.2 15.5h104l-4.2-15.5"/><path d="M-101.6 299h215.9v1.7h-215.9zM-136.9 349.3h286.4v6h-286.4z"/><path class="st23" d="M-94 180.9h6.6v6.6H-94zM-85.8 180.9h6.6v6.6h-6.6zM-77.6 180.9h6.6v6.6h-6.6z"/><path class="st12" d="M-94 191.1h199.6V212H-94z"/><path class="st19" d="M-89.6 195.2h2.9l2.7 4.6 2.7-4.6h2.8l-4.3 7.1v4.4h-2.5v-4.5l-4.3-7zM-79.5 200.8c.2-.5.5-1 .9-1.4.4-.4.8-.7 1.4-.9.5-.2 1.1-.3 1.8-.3s1.3.1 1.8.3c.5.2 1 .5 1.4.9.4.4.7.8.9 1.4.2.5.3 1.2.3 1.8 0 .7-.1 1.3-.3 1.8-.2.5-.5 1-.9 1.4-.4.4-.8.7-1.4.9-.5.2-1.1.3-1.8.3s-1.3-.1-1.8-.3c-.5-.2-1-.5-1.4-.9-.4-.4-.7-.8-.9-1.4-.2-.5-.3-1.1-.3-1.8 0-.6.1-1.3.3-1.8zm2.1 2.8l.3.9c.2.3.4.5.6.6.3.2.6.2 1 .2s.7-.1 1-.2c.3-.2.5-.4.6-.6.2-.3.3-.5.3-.9.1-.3.1-.6.1-1 0-.3 0-.7-.1-1l-.3-.9c-.2-.2-.4-.5-.6-.6-.3-.2-.6-.2-1-.2s-.7.1-1 .2c-.3.2-.5.4-.6.6-.2.2-.3.5-.3.9-.1.3-.1.7-.1 1 0 .4 0 .7.1 1zM-63.9 206.8v-1.2c-.3.5-.7.8-1.1 1.1-.5.2-.9.3-1.4.3-.6 0-1.1-.1-1.5-.2-.4-.2-.7-.4-.9-.7-.2-.3-.4-.7-.5-1.1-.1-.4-.1-.9-.1-1.4v-5.2h2.3v4.7c0 .7.1 1.2.3 1.6.2.3.6.5 1.2.5s1.1-.2 1.4-.6c.3-.4.4-1 .4-1.8v-4.4h2.3v8.4h-2.4zM-57.8 198.4v1.6c.1-.3.3-.5.4-.7l.6-.6c.2-.2.5-.3.8-.4.3-.1.6-.1.8-.1.2 0 .3 0 .5.1v2.1c-.1 0-.2 0-.4-.1h-.4c-.4 0-.8.1-1.1.2-.3.1-.5.3-.7.6-.2.2-.3.5-.4.9-.1.3-.1.7-.1 1.1v3.8H-60v-8.4h2.2zM-49.3 201c0-.5.2-1 .4-1.3.2-.4.5-.6.9-.9.4-.2.8-.4 1.2-.5s.9-.1 1.4-.1c.4 0 .8 0 1.3.1l1.2.3c.4.2.6.4.9.7.2.3.3.7.3 1.2v4.4c0 .4 0 .7.1 1.1 0 .3.1.6.2.8h-2.3c0-.1-.1-.3-.1-.4 0-.1 0-.3-.1-.4-.4.4-.8.6-1.3.8-.5.2-1 .2-1.5.2-.4 0-.8 0-1.1-.1-.3-.1-.6-.2-.9-.5-.3-.2-.5-.5-.6-.8-.1-.3-.2-.7-.2-1.1 0-.5.1-.9.3-1.2.2-.3.4-.6.6-.7.3-.2.6-.3.9-.4.3-.1.7-.2 1-.2s.7-.1 1-.1c.3 0 .6-.1.9-.1.3-.1.5-.2.6-.3.2-.1.2-.3.2-.5s0-.4-.1-.6c-.1-.1-.2-.3-.3-.3-.1-.1-.3-.1-.5-.2h-.6c-.5 0-.8.1-1.1.3-.3.2-.4.5-.5 1h-2.2zm5.4 1.7c-.1.1-.2.2-.4.2-.1 0-.3.1-.5.1s-.3.1-.5.1-.4 0-.6.1c-.2 0-.3.1-.5.1-.2.1-.3.1-.4.2l-.3.3c-.1.1-.1.3-.1.5s0 .4.1.5c.1.1.2.3.3.3.1.1.3.1.5.2h.5c.5 0 .8-.1 1.1-.2.2-.2.4-.3.6-.5.1-.2.2-.4.2-.6v-1.3zM-35.8 199.9c-.4 0-.7.1-.9.3-.2.2-.5.4-.6.6-.2.3-.3.6-.3.9-.1.3-.1.6-.1 1 0 .3 0 .6.1.9l.3.9c.1.3.3.5.6.6.2.2.6.2.9.2.6 0 1-.2 1.3-.5.3-.3.5-.7.6-1.2h2.2c-.2 1.1-.6 2-1.3 2.5-.7.6-1.6.9-2.7.9-.6 0-1.2-.1-1.7-.3-.5-.2-1-.5-1.3-.9-.4-.4-.7-.8-.9-1.4-.2-.5-.3-1.1-.3-1.7 0-.6.1-1.3.3-1.8.2-.6.5-1 .8-1.4.4-.4.8-.7 1.3-1s1.1-.3 1.8-.3c.5 0 1 .1 1.4.2.5.1.9.3 1.2.6.4.3.7.6.9 1 .2.4.4.9.4 1.4h-2.3c-.2-1-.7-1.5-1.7-1.5zM-26.5 199.9c-.4 0-.7.1-.9.3-.2.2-.5.4-.6.6-.2.3-.3.6-.3.9-.1.3-.1.6-.1 1 0 .3 0 .6.1.9l.3.9c.1.3.3.5.6.6.2.2.6.2.9.2.6 0 1-.2 1.3-.5.3-.3.5-.7.6-1.2h2.2c-.2 1.1-.6 2-1.3 2.5-.7.6-1.6.9-2.7.9-.6 0-1.2-.1-1.7-.3-.5-.2-1-.5-1.3-.9-.4-.4-.7-.8-.9-1.4-.2-.5-.3-1.1-.3-1.7 0-.6.1-1.3.3-1.8.2-.6.5-1 .8-1.4.4-.4.8-.7 1.3-1 .5-.2 1.1-.3 1.8-.3.5 0 1 .1 1.4.2.5.1.9.3 1.2.6.4.3.7.6.9 1 .2.4.4.9.4 1.4h-2.3c-.2-1-.7-1.5-1.7-1.5zM-21.2 200.8c.2-.5.5-1 .9-1.4.4-.4.8-.7 1.4-.9.5-.2 1.1-.3 1.8-.3s1.3.1 1.8.3c.5.2 1 .5 1.4.9.4.4.7.8.9 1.4.2.5.3 1.2.3 1.8 0 .7-.1 1.3-.3 1.8-.2.5-.5 1-.9 1.4-.4.4-.8.7-1.4.9s-1.1.3-1.8.3-1.3-.1-1.8-.3c-.5-.2-1-.5-1.4-.9-.4-.4-.7-.8-.9-1.4-.2-.5-.3-1.1-.3-1.8 0-.6.1-1.3.3-1.8zm2.1 2.8l.3.9c.2.3.4.5.6.6.3.2.6.2 1 .2s.7-.1 1-.2c.3-.2.5-.4.6-.6.2-.3.3-.5.3-.9.1-.3.1-.6.1-1 0-.3 0-.7-.1-1l-.3-.9c-.2-.2-.4-.5-.6-.6-.3-.2-.6-.2-1-.2s-.7.1-1 .2c-.3.2-.5.4-.6.6-.2.2-.3.5-.3.9-.1.3-.1.7-.1 1 0 .4.1.7.1 1zM-5.6 206.8v-1.2c-.3.5-.7.8-1.1 1.1-.5.2-.9.3-1.4.3-.6 0-1.1-.1-1.5-.2-.4-.2-.7-.4-.9-.7-.2-.3-.4-.7-.5-1.1-.1-.4-.1-.9-.1-1.4v-5.2H-9v4.7c0 .7.1 1.2.3 1.6.2.3.6.5 1.2.5s1.1-.2 1.4-.6c.3-.4.4-1 .4-1.8v-4.4h2.3v8.4h-2.2zM.5 198.4v1.2c.3-.5.7-.8 1.1-1.1.5-.2.9-.3 1.4-.3.6 0 1.1.1 1.5.3.4.2.7.4.9.7.2.3.4.7.5 1.1s.1.9.1 1.4v5.2H3.9v-4.7c0-.7-.1-1.2-.3-1.6-.2-.4-.6-.6-1.2-.6s-1.1.2-1.4.6c-.3.4-.4 1-.4 1.8v4.4h-2.3v-8.4H.5zM12.6 198.4v1.5h-1.7v4.2c0 .4.1.6.2.8.1.1.4.2.8.2h.7v1.8c-.2 0-.4.1-.6.1h-.7c-.4 0-.7 0-1-.1-.3 0-.6-.1-.8-.3-.2-.1-.4-.3-.6-.6-.1-.3-.2-.6-.2-1v-5H7.2v-1.5h1.4V196h2.3v2.5h1.7z"/><path class="st15" d="M-93.4 218.8h62.5v52.9h-62.5z"/><path class="st17" d="M-88.4 256h52.6v3.8h-52.6zM-88.4 262.9h29.6v3.8h-29.6z"/><path class="st16" d="M-93.4 218.8h62.5v33.8h-62.5z"/><path class="st15" d="M-26.4 218.8h62.5v52.9h-62.5z"/><path class="st16" d="M-26.4 218.8h62.5v33.8h-62.5z"/><path class="st15" d="M40.6 218.8h62.5v52.9H40.6z"/><path class="st16" d="M40.6 218.8h62.5v33.8H40.6z"/><path class="st17" d="M-22.3 256h52.6v3.8h-52.6zM-22.3 262.9H7.3v3.8h-29.6zM44.9 256h52.6v3.8H44.9zM44.9 262.9h29.6v3.8H44.9z"/><path class="st20" d="M114.3 177v-2.7h-216V299h215.9v-71.7h.1V177zm-4.7 115.8H-97V178.6h206.4v48.7h.1v65.5z"/><path class="st19" d="M-162 241.9h35v3.3h-35z"/></g><g><ellipse class="st12" cx="-189.9" cy="354.1" rx="10" ry="1.7"/><ellipse class="st12" cx="-168.3" cy="360.7" rx="9.7" ry="1.6"/></g><g><ellipse class="st12" cx="191.3" cy="341.2" rx="16.5" ry="2.9"/><ellipse class="st12" cx="217.3" cy="331.1" rx="11.5" ry="2"/></g><g><path class="st24" d="M120.7 357l40.4-25.5c2.3-1.5 3-4.6 1.5-6.9-1.5-2.3-4.6-3-6.9-1.5l-40.4 25.5c-2.3 1.5-3 4.6-1.5 6.9 1.5 2.3 4.6 2.9 6.9 1.5z"/><path class="st25" d="M114.9 356.6c1.6 1.3 4 1.5 5.9.4l40.4-25.5c1.9-1.2 2.7-3.6 2.1-5.7l-37.7 23.8-10.7 7z"/><path class="st24" d="M123.4 375.2l11.7-7.5c3.1-2 4-6.2 2-9.3l-15.9-24.8c-2-3.1-6.2-4-9.3-2l-11.7 7.5c-3.1 2-4 6.2-2 9.3l15.9 24.8c2 3.1 6.2 4 9.3 2z"/><path transform="rotate(147.341 111.932 357.067)" class="st1" d="M105.1 335.6h13.7v42.9h-13.7z"/><path class="st26" d="M117.7 378.8s-12.7 9.2-26 5.3L68.6 348c14.9 3.8 26-5.3 26-5.3s23.1 36 23.1 36.1z"/><path class="st27" d="M92.3 344.3l18.6 28.2s-7.2 5.5-20.5 4.9L109 383s5.6-2.2 8.7-4.2l-23.1-36.1-2.3 1.6z"/><path class="st12" d="M109 383s-3.1-4.7-10.3-4.5c-7.3.2-6.3-5.6-10.3-8.7s-8.7-3.5-9.9-12.2c-1.2-8.7-8.3-9.9-9.9-9.6s-3.5 2.8 1.4 6.1 4.9 7.8 5.2 12.5c.2 4.7 4 9.9 9.6 12.2s2.6 5.4 7 6.8c4.5 1.4 11.6 1.2 17.2-2.6z"/><path class="st28" d="M130.5 370.3l-12.8 8.4-4.3-6.6 22.7-14.8 2.2 2.8s2.2 3.8-1.4 6.5l-6.4 3.7z"/></g><g><path transform="rotate(-80.619 -32.763 362.944)" class="st29" d="M-35.6 336h5.7v53.8h-5.7z"/><path class="st29" d="M17.7 367.5l-1.4 8-20.7-.9 2.2-12.9z"/><path class="st8" d="M-7.2 364.7l5-3-2.2 12.9-3.6-5z"/><path class="st24" d="M-107.4 340.3c5.2.9 8.8 5.8 7.9 11-.9 5.2-5.8 8.8-11 7.9-5.2-.9-5.9-5.3-5.1-10.6.8-5.1 2.9-9.1 8.2-8.3z"/><path transform="rotate(-80.619 -83.92 354.007)" class="st1" d="M-93.4 329h19.1v50h-19.1z"/><path transform="rotate(-80.619 -58.772 358.163)" class="st24" d="M-71.6 355.8h25.7v4.8h-25.7z"/><path class="st30" d="M-67.3 360.2l-.3 1.5c-.1.5-.6.9-1.2.8l-36.1-6c-.5-.1-.9-.6-.8-1.2l.3-1.5c.1-.5.6-.9 1.2-.8l36.1 6c.5.1.9.6.8 1.2zM-66 352.4l-.3 1.5c-.1.5-.6.9-1.2.8l-36.1-6c-.5-.1-.9-.6-.8-1.2l.3-1.5c.1-.5.6-.9 1.2-.8l36.1 6c.5.2.9.7.8 1.2z"/></g><path class="st0" d="M58.2 181.9h45.9v4.2H58.2z"/><path class="st31" d="M-110.4 313.2l-25.8 35.1h-5.3l30.8-41.3z"/><path class="st18" d="M75 178.5L-39.5 293.1h149.1V178.5H75z"/></svg>