<svg xmlns="http://www.w3.org/2000/svg" xmlns:xlink="http://www.w3.org/1999/xlink" viewBox="0 0 32 32" width="32" height="32"><symbol id="a" viewBox="-17 -17 34 34"><path fill="#1C1C1B" d="M-1.9 4.4v-7c-.5.5-1.1.7-1.8.7-1.6 0-2.8-1.3-2.8-2.8 0-1.6 1.3-2.8 2.8-2.8 1.6 0 2.8 1.3 2.8 2.8V.6l6.6 2.5V-.3c-.6.5-1.2.8-1.9.8C2.2.5 1-.8 1-2.3c0-1.6 1.3-2.8 2.8-2.8 1.6 0 2.8 1.3 2.8 2.8v9.8l-8.5-3.1zM-3.7-6.1c-.8 0-1.4.6-1.4 1.4s.6 1.4 1.4 1.4c.8 0 1.4-.6 1.4-1.4S-3-6.1-3.7-6.1zm7.5 2.3c-.8 0-1.5.7-1.5 1.5S3-.9 3.8-.9s1.4-.6 1.4-1.4-.7-1.5-1.4-1.5z"/></symbol><use xlink:href="#a" width="34" height="34" x="-17" y="-17" transform="matrix(.9412 0 0 -.9412 16 16)" overflow="visible"/></svg>