<svg xmlns="http://www.w3.org/2000/svg" viewBox="0 0 32 32"><title xml:lang="en">Sunny (D)</title><defs><style>.svg-item-sun{fill:#fad64b}</style></defs><g class="svg-item-sun"><circle cx="16" cy="13.1" r="7.1"/><path d="M17.2 4.8h-2.4V0h2.4v4.8zm-6.4 1.7L8.4 2.3l2-1.1 2.5 4.2-2.1 1.1zm10.8 18.6l-2.5-4.2 2.1-1.2 2.4 4.2-2 1.2zm5.2-4.4l-4.2-2.4 1.2-2 4.1 2.4-1.1 2zM7.7 14.3H2.9V12h4.8v2.3zm21.4 0h-4.8V12h4.8v2.3zM5.2 20.7l-1.1-2 4.1-2.4 1.2 2-4.2 2.4zM23.8 10l-1.2-2 4.2-2.4 1.1 2-4.1 2.4zm-2.6-3.5l-2.1-1.1 2.5-4.2 2 1.1-2.4 4.2zM10.4 25.1l-2-1.2 2.4-4.2 2.1 1.2-2.5 4.2zm6.8 1.1h-2.4v-4.8h2.4v4.8zM8.2 10L4.1 7.6l1.1-2L9.4 8l-1.2 2z"/></g></svg>