<svg xmlns="http://www.w3.org/2000/svg" viewBox="0 0 32 32"><title xml:lang="en">Heavy Rain</title><defs><style>.svg-item-thick-cloud{fill:#000}.svg-item-raindrop{fill:#68a5d8}</style></defs><path class="svg-item-thick-cloud" d="M23 8.2h-.6c-.8-2.9-3.4-5-6.4-5-3.1 0-5.7 2.1-6.4 5H9c-2.7 0-4.9 2.2-4.9 4.9S6.3 18 9 18h3v-2.3H9c-1.4 0-2.6-1.2-2.6-2.6 0-1.4 1.2-2.6 2.6-2.6.9 0 1.8.5 2.2 1.3l2-1.2c-.4-.6-.9-1.2-1.5-1.6.4-2 2.2-3.5 4.3-3.5 2.4 0 4.4 2 4.4 4.4 0 .9-.3 1.8-.8 2.5h2.6c.2-.6.4-1.3.5-1.9h.4c1.4 0 2.6 1.2 2.6 2.6 0 1.4-1.2 2.6-2.6 2.6H20V18h3c2.7 0 4.9-2.2 4.9-4.9S25.7 8.2 23 8.2z"/><path class="svg-item-raindrop" d="M11.6 24.1l.4-4.7-4 2.3c-.7.4-1.2 1.2-1.2 2.1 0 1.3 1.1 2.4 2.4 2.4 1.3.1 2.3-.9 2.4-2.1zm6.6-5.7l.4-4.7-4 2.3c-.7.4-1.2 1.2-1.2 2.1 0 1.3 1.1 2.4 2.4 2.4 1.2.1 2.2-.9 2.4-2.1z"/></svg>