<svg xmlns="http://www.w3.org/2000/svg" viewBox="0 0 32 32"><title xml:lang="en">Light Snow Shower (N)</title><defs><style>.svg-item-partial-moon{fill:#b3b3b3}.svg-item-thick-cloud{fill:#000}.svg-item-snowflake{fill:#ddd}</style></defs><path class="svg-item-partial-moon" d="M31 11.3c-3.9 0-7.1-3.2-7.1-7 0-1.6.5-3.1 1.5-4.3-3.5.4-6.2 3.4-6.2 6.9 3.2.2 5.7 2.8 5.7 6 0 .3 0 .6-.1.9.5.1.9.1 1.4.1 2.3 0 4.3-1.1 5.6-2.8-.2.2-.5.2-.8.2z"/><path class="svg-item-thick-cloud" d="M18.9 8.2h-.6c-.8-2.9-3.3-5-6.4-5-3.1 0-5.7 2.1-6.4 5h-.6C2.2 8.2 0 10.4 0 13.1S2.2 18 4.9 18H8v-2.3H4.9c-1.4 0-2.6-1.2-2.6-2.6 0-1.4 1.2-2.6 2.6-2.6.9 0 1.8.5 2.2 1.3l2-1.2c-.4-.6-.9-1.1-1.5-1.5.4-2 2.2-3.5 4.3-3.5 2.4 0 4.3 2 4.3 4.4 0 .9-.3 1.8-.8 2.5H18c.2-.6.4-1.3.5-1.9h.4c1.4 0 2.6 1.2 2.6 2.6 0 1.4-1.2 2.6-2.6 2.6h-3.1V18h3.1c2.7 0 4.9-2.2 4.9-4.9s-2.2-4.9-4.9-4.9z"/><g class="svg-item-snowflake"><path d="M13.2 20l-3.4-3.4.7-.7 3.4 3.5-.7.6z"/><path d="M11.7 20.5l-1-.3 1.3-4.7 1 .2-1.3 4.8z"/><path d="M9.6 19.1l-.2-1 4.7-1.2.2.9-4.7 1.3z"/></g></svg>