<svg xmlns="http://www.w3.org/2000/svg" viewBox="0 0 32 32"><title xml:lang="en">Thundery Shower (D)</title><defs><style>.svg-item-partial-sun{fill:#fad64b}.svg-item-thick-cloud{fill:#000}.svg-item-lightning{fill:#fdec38}</style></defs><path d="M20.1 4.8h-2.3V0h2.3v4.8zm0 21.5h-2.3v-4.9h2.3v4.9zm7.1-12V12H32v2.3h-4.8zm-2.7 10.8l-2.4-4.2 2-1.2 2.4 4.2-2 1.2zM26.7 10l-1.2-2 4.2-2.4 1.1 2-4.1 2.4zm3 10.7l-4.2-2.4 1.2-2 4.1 2.4-1.1 2zM24.1 6.5l-2-1.1 2.4-4.2 2 1.1-2.4 4.2z" class="svg-item-partial-sun"/><path class="svg-item-thick-cloud" d="M19 8.2h-.6c-.8-2.9-3.4-5-6.4-5s-5.7 2.1-6.4 5H5c-2.8 0-5 2.2-5 4.9S2.2 18 4.9 18H8v-2.3H4.9c-1.4 0-2.6-1.2-2.6-2.6 0-1.4 1.2-2.6 2.6-2.6.9 0 1.8.5 2.2 1.3l2-1.2c-.4-.6-.9-1.1-1.4-1.5.4-2 2.2-3.5 4.3-3.5 2.4 0 4.4 2 4.4 4.4 0 .9-.3 1.8-.8 2.5h2.6c.2-.6.4-1.3.5-1.9h.4c1.4 0 2.6 1.2 2.6 2.6 0 1.4-1.2 2.6-2.6 2.6H16v2.3h3c2.7 0 4.9-2.2 4.9-4.9 0-2.8-2.2-5-4.9-5z"/><path class="svg-item-lightning" d="M11.3 14.8L8 21.4h3.8L9 28.6l.3.2 6.2-9.4h-3.7l2.9-4.6z"/></svg>