<svg xmlns="http://www.w3.org/2000/svg" viewBox="0 0 32 32" xml:lang="cy"><title xml:lang="en">Hazy</title><path d="M.12 10.767V9.552h5.383v1.214h-1.97v5.354H2.09v-5.354H.12zm11.05-1.215v1.214H7.7v1.408h3.185v1.123H7.7v1.61h3.543v1.214H6.256V9.554h4.913zm2.152 4.95c.08.153.185.277.317.373.13.095.284.166.462.21a2.2 2.2 0 0 0 .553.07c.128 0 .267-.01.413-.032.146-.02.285-.063.413-.125a.903.903 0 0 0 .323-.253.633.633 0 0 0 .13-.41.58.58 0 0 0-.17-.432 1.378 1.378 0 0 0-.447-.276c-.185-.074-.393-.138-.626-.193s-.47-.116-.708-.184c-.245-.06-.484-.136-.718-.225s-.44-.204-.626-.345a1.626 1.626 0 0 1-.446-.53 1.613 1.613 0 0 1-.17-.767c0-.337.072-.63.217-.88.144-.248.332-.454.565-.62a2.47 2.47 0 0 1 .79-.368c.296-.08.59-.12.885-.12.344 0 .674.038.99.115.315.077.596.2.84.373.246.172.44.39.586.658.143.27.215.59.215.97h-1.396a1.18 1.18 0 0 0-.124-.485.816.816 0 0 0-.282-.304 1.184 1.184 0 0 0-.4-.155 2.434 2.434 0 0 0-.49-.046 1.72 1.72 0 0 0-.35.036.898.898 0 0 0-.318.13.782.782 0 0 0-.235.23.62.62 0 0 0-.092.35.58.58 0 0 0 .074.31c.05.08.146.154.29.222s.343.135.598.203c.254.068.587.154.998.26.122.023.293.07.51.132s.435.168.65.31.4.33.555.565c.156.236.234.538.234.906 0 .3-.06.58-.175.838a1.81 1.81 0 0 1-.52.668 2.5 2.5 0 0 1-.854.437c-.34.104-.735.156-1.183.156-.362 0-.713-.043-1.054-.132-.34-.09-.64-.23-.9-.418s-.47-.433-.622-.727c-.153-.294-.227-.644-.22-1.048H13.2c.002.22.042.407.122.56zm4.8-3.004c.148-.42.36-.787.636-1.1a2.9 2.9 0 0 1 1.017-.735 3.31 3.31 0 0 1 1.357-.267c.51 0 .963.09 1.36.267.4.178.737.423 1.013.736.276.31.488.677.635 1.097.147.42.22.875.22 1.366 0 .48-.072.925-.22 1.34a3.165 3.165 0 0 1-.635 1.08c-.275.307-.613.547-1.012.722s-.853.262-1.36.262c-.504 0-.957-.087-1.358-.262s-.74-.415-1.017-.722a3.23 3.23 0 0 1-.635-1.08 3.972 3.972 0 0 1-.22-1.34c0-.49.073-.946.22-1.366zm1.32 2.17c.065.262.168.496.31.705.14.208.324.376.55.5.23.127.505.19.83.19s.6-.063.828-.188a1.59 1.59 0 0 0 .552-.5c.14-.21.243-.444.308-.705s.097-.53.097-.805c0-.288-.032-.567-.097-.837a2.21 2.21 0 0 0-.308-.722 1.58 1.58 0 0 0-.552-.506c-.228-.125-.503-.188-.828-.188s-.602.063-.828.188a1.56 1.56 0 0 0-.552.506 2.222 2.222 0 0 0-.31.722c-.063.27-.096.55-.096.837 0 .275.033.544.097.804zm9.795 2.402a2.42 2.42 0 0 1-.947.198c-.503 0-.956-.087-1.357-.262s-.74-.415-1.017-.722a3.23 3.23 0 0 1-.635-1.08 3.972 3.972 0 0 1-.22-1.34c0-.49.074-.946.22-1.366.15-.42.36-.787.637-1.1a2.9 2.9 0 0 1 1.017-.735 3.31 3.31 0 0 1 1.357-.267c.338 0 .664.05.98.152.315.1.6.25.855.446.255.197.465.44.63.727.166.29.268.62.304.996h-1.38c-.087-.368-.25-.644-.497-.828a1.447 1.447 0 0 0-.893-.276c-.326 0-.603.064-.83.19-.227.125-.41.293-.55.505a2.222 2.222 0 0 0-.31.722c-.064.27-.097.55-.097.836 0 .276.032.544.097.805s.167.495.31.704c.14.208.323.376.55.5.228.127.504.19.83.19.478 0 .847-.122 1.107-.364s.412-.594.455-1.054H28.4V12.57h2.76v3.55h-.92l-.147-.744c-.258.33-.543.562-.856.694z" class="svg-item-text"/></svg>