<svg xmlns="http://www.w3.org/2000/svg" viewBox="-125 404.89 32 32"><path d="M-123.24 421.05c.08.16.19.28.33.38.14.1.29.17.48.22.18.05.37.07.57.07.13 0 .27-.01.43-.03.15-.02.29-.07.43-.13a.93.93 0 0 0 .33-.26.64.64 0 0 0 .13-.42c0-.18-.06-.33-.17-.44a1.38 1.38 0 0 0-.46-.28c-.19-.08-.4-.14-.64-.2s-.48-.12-.73-.19c-.25-.06-.5-.14-.74-.23s-.45-.21-.64-.35c-.19-.14-.34-.33-.46-.54-.12-.22-.17-.48-.17-.79 0-.35.07-.65.22-.9.15-.26.34-.47.58-.64.24-.17.51-.3.81-.38.3-.08.6-.12.91-.12.35 0 .69.04 1.02.12.32.08.61.21.86.38.25.18.45.4.6.68.15.27.22.61.22 1h-1.44c-.01-.2-.06-.37-.13-.5a.79.79 0 0 0-.29-.31c-.12-.08-.26-.13-.41-.16-.15-.03-.32-.05-.51-.05-.12 0-.24.01-.36.04s-.23.07-.33.13-.18.14-.24.24-.09.21-.09.36c0 .13.02.24.07.32.05.08.15.16.3.23s.35.14.61.21c.26.07.6.16 1.03.26.13.03.3.07.52.14.22.07.44.17.66.32.22.14.41.34.57.58.16.24.24.55.24.93 0 .31-.06.6-.18.86s-.3.49-.53.68c-.24.19-.53.34-.88.45s-.75.16-1.21.16c-.37 0-.73-.05-1.08-.14s-.66-.23-.93-.43c-.27-.2-.48-.44-.64-.75-.16-.3-.23-.66-.23-1.08h1.44c.01.21.05.41.13.56zM-114.37 422.66c-.32.14-.65.2-.97.2-.52 0-.98-.09-1.39-.27a3.03 3.03 0 0 1-1.04-.74c-.28-.32-.5-.69-.65-1.11-.15-.43-.23-.88-.23-1.37 0-.5.07-.97.23-1.4.15-.43.37-.81.65-1.13.28-.32.63-.57 1.04-.76s.88-.27 1.39-.27a3.14 3.14 0 0 1 1.89.62c.26.2.48.45.65.75.17.3.27.64.31 1.02h-1.42c-.09-.38-.26-.66-.51-.85-.25-.19-.56-.28-.92-.28-.33 0-.62.07-.85.19-.23.13-.42.3-.57.52-.14.22-.25.46-.32.74-.07.28-.1.56-.1.86 0 .28.03.56.1.83.07.27.17.51.32.72.14.21.33.39.57.51.23.13.52.19.85.19.49 0 .87-.12 1.14-.37.27-.25.42-.61.47-1.08h-1.49v-1.1h2.83v3.65h-.94l-.15-.76c-.28.32-.57.56-.89.69zM-109.84 415.97v5.5h3.29v1.25h-4.77v-6.74h1.48zM-100.8 415.97v1.25h-3.56v1.45h3.27v1.15h-3.27v1.65h3.64v1.25h-5.12v-6.74h5.04zM-99.92 417.97c.15-.43.37-.81.65-1.13.28-.32.63-.57 1.04-.76s.88-.27 1.39-.27c.52 0 .99.09 1.4.27.41.18.76.43 1.04.76s.5.7.65 1.13c.15.43.23.9.23 1.4 0 .49-.08.95-.23 1.37-.15.42-.37.8-.65 1.11-.28.31-.63.56-1.04.74-.41.18-.88.27-1.4.27-.52 0-.98-.09-1.39-.27a3.03 3.03 0 0 1-1.04-.74c-.28-.32-.5-.69-.65-1.11-.15-.43-.23-.88-.23-1.37.01-.5.08-.97.23-1.4zm1.36 2.23c.07.27.17.51.32.72.14.21.33.39.57.51.23.13.52.19.85.19s.62-.06.85-.19c.23-.13.42-.3.57-.51.15-.21.25-.46.32-.72.07-.27.1-.54.1-.83 0-.3-.03-.58-.1-.86s-.17-.52-.32-.74c-.14-.22-.33-.39-.57-.52-.23-.13-.52-.19-.85-.19s-.62.07-.85.19c-.23.13-.42.3-.57.52-.14.22-.25.46-.32.74-.07.28-.1.56-.1.86 0 .29.03.56.1.83zm-.04-6.5l1.54 1.67h.93l-1-1.67h-1.47z"/></svg>