<svg xmlns="http://www.w3.org/2000/svg" viewBox="0 0 32 32" xml:lang="cy"><title xml:lang="en">Sandstorm</title><g class="svg-item-text"><path d="M1.57 8.798c.07.14.166.25.285.336s.26.15.42.19c.16.043.325.063.497.063.116 0 .24-.01.374-.03s.257-.056.374-.11c.115-.056.212-.132.29-.23s.116-.22.116-.37a.52.52 0 0 0-.153-.39c-.103-.098-.237-.18-.403-.248s-.354-.126-.565-.176a15.9 15.9 0 0 1-.64-.166 5.65 5.65 0 0 1-.646-.204 2.227 2.227 0 0 1-.566-.31 1.474 1.474 0 0 1-.403-.48 1.454 1.454 0 0 1-.153-.692c0-.304.065-.57.195-.793.13-.224.3-.41.51-.56.21-.15.45-.26.715-.33.266-.074.53-.11.796-.11.31 0 .607.035.893.104.285.07.538.18.76.336s.396.354.526.594.195.533.195.876h-1.26a1.04 1.04 0 0 0-.113-.44c-.064-.116-.15-.207-.254-.273s-.224-.114-.36-.14a2.186 2.186 0 0 0-.443-.043c-.105 0-.21.01-.315.033-.106.022-.2.06-.287.117s-.157.124-.212.207a.56.56 0 0 0-.083.317c0 .116.022.21.066.282.045.07.132.14.262.2s.31.12.54.182.53.14.9.233c.11.022.264.062.46.12.197.058.392.15.586.278.194.128.36.298.502.51s.21.486.21.818c0 .27-.052.524-.157.756s-.26.435-.47.603c-.208.167-.465.3-.77.393s-.665.14-1.07.14a3.71 3.71 0 0 1-.95-.12 2.392 2.392 0 0 1-.812-.377c-.236-.17-.423-.39-.56-.656s-.206-.58-.2-.945h1.26c0 .2.037.368.11.506zm3.925-3.37V4.333h4.855V5.43H8.574v4.83H7.27V5.428H5.496zm5.478.66c.133-.38.323-.71.572-.992.248-.282.555-.503.918-.664.36-.16.77-.24 1.223-.24a3 3 0 0 1 1.23.24c.358.16.663.382.913.664.246.282.437.613.57.992.133.38.2.79.2 1.233 0 .433-.067.836-.2 1.21s-.324.7-.57.975c-.25.277-.557.494-.916.652a3.05 3.05 0 0 1-1.23.236c-.452 0-.86-.08-1.222-.236a2.613 2.613 0 0 1-.918-.652c-.25-.276-.44-.602-.572-.975s-.2-.777-.2-1.21a3.7 3.7 0 0 1 .2-1.232zm1.192 1.96c.057.234.15.446.277.634.127.188.293.34.498.453s.453.17.746.17.543-.057.748-.17.37-.264.498-.453c.127-.188.22-.4.277-.635s.086-.477.086-.726c0-.26-.03-.51-.088-.753s-.15-.46-.278-.652-.293-.343-.498-.457c-.205-.113-.455-.17-.748-.17s-.54.057-.746.17c-.205.114-.37.266-.498.457s-.22.408-.277.652a3.197 3.197 0 0 0 0 1.48zm8.52-3.715c.266 0 .505.043.718.13.213.084.396.202.548.352s.27.322.35.52c.08.196.12.407.12.634 0 .347-.072.65-.22.903s-.385.448-.717.58v.016a1.006 1.006 0 0 1 .655.526c.067.125.115.26.146.41s.05.3.062.45c.006.093.012.204.017.33.006.128.016.258.03.39s.035.26.065.38c.03.118.076.22.137.302H21.29a2.306 2.306 0 0 1-.133-.673 9.79 9.79 0 0 0-.074-.747c-.045-.31-.14-.537-.282-.68-.143-.145-.38-.217-.704-.217h-1.303v2.317H17.49V4.332h3.196zm-.465 2.68c.3 0 .522-.065.672-.198s.225-.35.225-.647c0-.288-.075-.497-.225-.627-.15-.13-.373-.193-.672-.193h-1.428v1.668h1.428zm5.095-2.68L26.7 8.408h.018l1.312-4.075h1.834v5.926h-1.22v-4.2h-.017l-1.452 4.2H26.17L24.718 6.1H24.7v4.16h-1.22V4.332h1.835zM2.816 12.01c.382 0 .737.062 1.067.184.33.122.614.304.855.548.24.244.43.548.564.913.136.365.204.794.204 1.287 0 .43-.056.83-.166 1.195-.11.365-.278.68-.502.946A2.36 2.36 0 0 1 4 17.71c-.335.15-.73.228-1.183.228H.26v-5.926h2.556zm-.09 4.832c.187 0 .37-.03.547-.09.177-.062.335-.163.473-.304s.25-.325.332-.552c.083-.227.125-.503.125-.83 0-.3-.03-.57-.087-.81s-.154-.447-.287-.618-.31-.303-.53-.395a2.112 2.112 0 0 0-.81-.137h-.93v3.735h1.164zM5.77 12.01h1.462l1.386 2.342 1.378-2.34h1.453l-2.2 3.65v2.275H7.944V15.63L5.77 12.01z"/><path d="M16.296 17.938l-1.004-4.034h-.017l-.988 4.034h-1.32L11.4 12.012h1.3l.938 4.034h.017l1.03-4.034h1.22l1.012 4.083h.016l.972-4.083h1.278l-1.594 5.926h-1.297zm3.428-4.17c.133-.38.323-.71.572-.993s.555-.503.918-.664a3 3 0 0 1 1.224-.24 3 3 0 0 1 1.23.24c.358.163.663.384.912.666s.44.613.572.992c.133.38.2.79.2 1.233 0 .43-.067.835-.2 1.21s-.323.7-.572.974a2.64 2.64 0 0 1-.913.652 3.05 3.05 0 0 1-1.23.236c-.452 0-.86-.078-1.223-.235a2.622 2.622 0 0 1-.918-.652c-.25-.276-.44-.6-.572-.975s-.2-.777-.2-1.208a3.7 3.7 0 0 1 .2-1.233zm1.19 1.96c.06.233.15.445.278.633.128.19.294.34.498.455.205.113.454.17.747.17s.542-.057.747-.17.37-.264.498-.453c.127-.187.22-.398.278-.634a3.02 3.02 0 0 0 .087-.726c0-.26-.03-.512-.087-.755-.06-.244-.15-.46-.278-.652s-.293-.343-.498-.457c-.205-.113-.454-.17-.747-.17s-.542.057-.747.17a1.43 1.43 0 0 0-.498.457 1.98 1.98 0 0 0-.277.652 3.197 3.197 0 0 0 0 1.48zm7.88-3.718c.383 0 .738.062 1.067.184.33.122.616.304.857.548.24.244.43.548.564.913.136.365.204.794.204 1.287 0 .43-.056.83-.166 1.195s-.278.68-.502.946c-.225.266-.504.475-.84.627s-.728.23-1.182.23h-2.557v-5.927h2.56zm-.09 4.832c.188 0 .37-.03.548-.09.177-.062.334-.163.473-.304s.25-.325.332-.552c.083-.227.125-.503.125-.83 0-.3-.03-.57-.088-.81-.058-.24-.153-.447-.286-.618s-.31-.303-.527-.395a2.106 2.106 0 0 0-.807-.137h-.93v3.735h1.162z"/></g></svg>