<svg xmlns="http://www.w3.org/2000/svg" viewBox="-281 404.89 32 32"><path d="M-279.9 415.85c.05.09.11.16.19.22s.17.1.28.13.21.04.33.04c.08 0 .16-.01.25-.02s.17-.04.25-.07c.08-.04.14-.09.19-.15.05-.06.08-.14.08-.24a.34.34 0 0 0-.1-.26.76.76 0 0 0-.26-.16c-.11-.04-.23-.08-.37-.11-.14-.03-.28-.07-.42-.11-.15-.04-.29-.08-.43-.13s-.26-.12-.37-.2c-.11-.08-.2-.19-.27-.31a.947.947 0 0 1-.1-.46c0-.2.04-.37.13-.52.09-.15.2-.27.34-.37s.29-.17.47-.22c.17-.05.35-.07.52-.07.2 0 .4.02.59.07.19.05.35.12.5.22.15.1.26.23.35.39.09.16.13.35.13.58h-.83a.772.772 0 0 0-.07-.29c-.04-.08-.1-.14-.17-.18s-.15-.08-.24-.09c-.09-.02-.19-.03-.29-.03-.07 0-.14.01-.21.02a.64.64 0 0 0-.19.08c-.06.04-.1.08-.14.14-.04.06-.05.12-.05.21 0 .08.01.14.04.19a.4.4 0 0 0 .17.13c.09.04.2.08.35.12.15.04.35.09.59.15.07.01.17.04.3.08.13.04.26.1.38.18.13.08.24.2.33.34.09.14.14.32.14.54 0 .18-.03.34-.1.5-.07.15-.17.28-.31.4-.14.11-.31.2-.51.26s-.44.09-.7.09c-.21 0-.42-.03-.62-.08s-.38-.14-.54-.25c-.15-.11-.28-.26-.37-.43a1.32 1.32 0 0 1-.13-.62h.83c-.01.09.01.2.06.29zM-277.37 413.63v-.72h3.19v.72h-1.17v3.18h-.86v-3.18h-1.16zM-273.82 414.07c.09-.25.21-.47.38-.65.16-.19.36-.33.6-.44.24-.11.51-.16.8-.16.3 0 .57.05.81.16.24.11.44.25.6.44.16.19.29.4.38.65.09.25.13.52.13.81 0 .28-.04.55-.13.79s-.21.46-.38.64c-.16.18-.36.32-.6.43-.24.1-.51.15-.81.15-.3 0-.57-.05-.8-.15s-.44-.25-.6-.43c-.16-.18-.29-.4-.38-.64-.09-.25-.13-.51-.13-.79-.01-.29.04-.56.13-.81zm.78 1.29c.04.15.1.29.18.42.08.12.19.22.33.3.13.07.3.11.49.11s.36-.04.49-.11c.13-.08.24-.17.33-.3.08-.12.14-.26.18-.42a2.074 2.074 0 0 0 0-.98c-.04-.16-.1-.3-.18-.43a.798.798 0 0 0-.33-.3c-.13-.07-.3-.11-.49-.11s-.36.04-.49.11-.24.17-.33.3c-.08.13-.14.27-.18.43a2.074 2.074 0 0 0 0 .98zM-268.74 412.91v3.9h-.86v-3.9h.86zM-265.94 412.91c.17 0 .33.03.47.08.14.06.26.13.36.23.1.1.18.21.23.34a1.266 1.266 0 0 1-.06 1.02c-.1.17-.25.3-.47.38v.01c.1.03.19.07.26.13s.13.13.17.21c.04.08.08.17.1.27.02.1.03.2.04.29 0 .06.01.14.01.22 0 .08.01.17.02.26s.02.17.04.25.05.15.09.2h-.86a1.37 1.37 0 0 1-.09-.44c-.01-.17-.03-.33-.05-.49-.03-.2-.09-.35-.19-.45-.09-.09-.25-.14-.46-.14h-.86v1.52h-.86v-3.9h2.11zm-.3 1.77c.2 0 .34-.04.44-.13.1-.09.15-.23.15-.43 0-.19-.05-.33-.15-.41a.7.7 0 0 0-.44-.13h-.94v1.1h.94zM-262.95 412.91l.91 2.68h.01l.86-2.68h1.21v3.9h-.8v-2.76h-.01l-.96 2.76h-.66l-.96-2.73h-.01v2.73h-.8v-3.9h1.21zM-257.7 414.99v.67h-1.64v-.67h1.64zM-278.25 422.85c-.19.08-.37.12-.56.12-.3 0-.57-.05-.8-.15s-.44-.25-.6-.43c-.16-.18-.29-.4-.38-.64-.09-.25-.13-.51-.13-.79 0-.29.04-.56.13-.81s.21-.47.38-.65c.16-.19.36-.33.6-.44s.51-.16.8-.16c.2 0 .39.03.58.09.19.06.36.15.51.26.15.12.28.26.37.43.1.17.16.37.18.59h-.82a.832.832 0 0 0-.29-.49.855.855 0 0 0-.53-.16c-.19 0-.36.04-.49.11-.13.08-.24.17-.33.3s-.14.27-.18.43a2.074 2.074 0 0 0 0 .98c.04.15.1.29.18.42.08.12.19.22.33.3.13.07.3.11.49.11.28 0 .5-.07.66-.22.15-.14.24-.35.27-.62h-.86v-.64h1.64v2.11h-.55l-.09-.44c-.15.17-.32.31-.51.39zM-274.52 418.98l1.46 3.9h-.89l-.29-.87h-1.46l-.31.87h-.86l1.47-3.9h.88zm.05 2.39l-.49-1.43h-.01l-.51 1.43h1.01zM-271.92 418.98v3.9h-.86v-3.9h.86zM-270.37 418.98l1.63 2.61h.01v-2.61h.8v3.9h-.86l-1.62-2.61h-.01v2.61h-.8v-3.9h.85zM-266.03 418.98l.91 2.68h.01l.86-2.68h1.21v3.9h-.8v-2.76h-.01l-.95 2.76h-.66l-.96-2.73h-.01v2.73h-.8v-3.9h1.2zM-261.48 418.98v1.5h1.58v-1.5h.86v3.9h-.86v-1.68h-1.58v1.68h-.86v-3.9h.86zM-257.49 418.98v3.9h-.86v-3.9h.86zM-254.3 420.02a.968.968 0 0 0-.19-.22c-.08-.06-.16-.11-.26-.15s-.2-.05-.3-.05c-.19 0-.36.04-.49.11-.13.08-.24.17-.33.3-.08.13-.15.27-.18.43a2.074 2.074 0 0 0 0 .98c.04.15.1.29.18.42.08.12.19.22.33.3.14.07.3.11.49.11.26 0 .47-.08.61-.24s.24-.37.27-.63h.83c-.02.24-.08.46-.17.66-.09.2-.21.36-.36.5s-.32.24-.52.32c-.2.07-.42.11-.66.11-.3 0-.57-.05-.81-.15-.24-.1-.44-.25-.6-.43-.16-.18-.29-.4-.38-.64-.09-.25-.13-.51-.13-.79 0-.29.04-.56.13-.81s.21-.47.38-.65c.16-.19.37-.33.6-.44.24-.11.51-.16.81-.16.21 0 .42.03.61.09s.36.15.51.27c.15.12.28.26.37.44.1.17.16.37.19.6h-.83a.526.526 0 0 0-.1-.28zM-251.95 418.98v1.5h1.58v-1.5h.86v3.9h-.86v-1.68h-1.58v1.68h-.86v-3.9h.86z"/></svg>