<svg xmlns="http://www.w3.org/2000/svg" viewBox="0 0 32 32" xml:lang="en"><title xml:lang="en">Sandstorm</title><defs><style>.svg-item-text{fill:#000}</style></defs><path d="M1.37 7.9c0 .8.687 1.1 1.372 1.1.49 0 1.274-.1 1.274-.8s-.98-.8-1.86-1.1c-.98-.2-1.96-.6-1.96-1.8 0-1.3 1.274-1.9 2.35-1.9 1.372 0 2.548.6 2.548 2H3.82c0-.8-.587-1-1.273-1-.49 0-.98.2-.98.7s.294.6 1.96 1c.39.2 1.86.5 1.86 2 0 1.2-.882 2-2.645 2C1.274 10.1 0 9.4 0 7.9h1.37zm6.565-4.3h1.47l2.35 6.4h-1.47l-.49-1.4h-2.35l-.49 1.4h-1.47l2.45-6.4zm-.098 3.9h1.665l-.88-2.3-.785 2.3zm4.408-3.9h1.47l2.644 4.3V3.6h1.272V10h-1.37l-2.646-4.3V10h-1.274V3.6h-.098zm6.662 0h2.743c1.665 0 2.94 1 2.94 3.1 0 1.8-.98 3.2-2.94 3.2h-2.743V3.6zm1.37 5.2h1.275c.784 0 1.567-.5 1.567-1.9 0-1.3-.49-2.1-1.863-2.1h-.98v4zM1.37 15.9c0 .8.687 1.2 1.372 1.2.49 0 1.274-.1 1.274-.8 0-.7-.98-.8-1.86-1.1-.98-.2-1.96-.6-1.96-1.8 0-1.3 1.274-1.9 2.35-1.9 1.372 0 2.548.6 2.548 2H3.82c0-.8-.587-1-1.273-1-.49 0-.98.2-.98.7s.294.6 1.96 1c.49.1 1.86.4 1.86 1.9 0 1.2-.882 2-2.645 2C1.372 18.1 0 17.4 0 15.8h1.37v.1zm6.075-3.1h-1.96v-1.2h5.29v1.2H8.818V18H7.445v-5.2zm6.858-1.3c1.96 0 3.135 1.5 3.135 3.4 0 1.8-1.176 3.3-3.135 3.3s-3.135-1.5-3.135-3.3c0-2 1.175-3.4 3.135-3.4zm0 5.5c1.274 0 1.763-1.1 1.763-2.1 0-1.1-.49-2.2-1.763-2.2s-1.763 1.1-1.763 2.2c0 1 .49 2.1 1.763 2.1zm3.917-5.4h3.43c1.176 0 1.86.8 1.86 1.8 0 .7-.293 1.3-.98 1.6.687.2.883.8.98 1.5 0 .4 0 1.1.295 1.5h-1.37c-.197-.4-.197-1-.197-1.5-.098-.7-.392-1-1.078-1h-1.567V18h-1.37v-6.4zm1.372 2.9h1.567c.586 0 .98-.3.98-.9 0-.6-.296-.9-.98-.9h-1.57v1.8zm4.898-2.9h1.96l1.47 4.4 1.37-4.4h1.96V18h-1.275v-4.5L28.41 18h-1.08l-1.566-4.5V18H24.49v-6.4z" class="svg-item-text"/></svg>