<svg xmlns="http://www.w3.org/2000/svg" viewBox="0 0 32 32" xml:lang="en"><title xml:lang="en">Mist</title><defs><style>.svg-item-text{fill:#000}</style></defs><path d="M2.3 9.7h2.6l2 5.8 1.9-5.8h2.6v8.4H9.7v-5.9l-2.1 5.9H6.2l-2.1-5.9v5.9H2.3V9.7zm10.4 0h1.8v8.4h-1.8V9.7zm4.7 5.6c0 1.1.9 1.6 1.9 1.6.6 0 1.6-.2 1.6-1 0-.9-1.3-1.1-2.5-1.4-1.2-.3-2.5-.8-2.5-2.4 0-1.7 1.6-2.5 3.1-2.5 1.8 0 3.4.8 3.4 2.7h-1.8c-.1-1-.8-1.3-1.7-1.3-.6 0-1.3.2-1.3 1 0 .6.4.7 2.5 1.3.6.2 2.5.5 2.5 2.4 0 1.5-1.2 2.7-3.5 2.7-1.9 0-3.6-.9-3.6-3h1.9v-.1zm8.1-4H23V9.7h6.9v1.6h-2.5v6.8h-1.8v-6.8h-.1z" class="svg-item-text"/></svg>