<svg xmlns="http://www.w3.org/2000/svg" viewBox="-176.25 404.89 32 32"><path d="M-168.66 414.81c-.14-.23-.32-.42-.53-.6-.21-.17-.45-.3-.72-.4-.27-.1-.55-.14-.84-.14-.53 0-.99.1-1.36.31-.37.21-.68.48-.91.83-.23.35-.4.74-.51 1.19-.11.44-.16.9-.16 1.37 0 .45.05.89.16 1.32.11.43.27.81.51 1.16s.53.62.91.82c.37.21.83.31 1.36.31.73 0 1.29-.22 1.7-.66.41-.44.66-1.03.75-1.75h2.3c-.06.68-.22 1.28-.47 1.83a4.266 4.266 0 0 1-2.45 2.27c-.55.2-1.16.3-1.83.3-.83 0-1.57-.14-2.23-.43-.66-.29-1.22-.68-1.67-1.19-.45-.5-.8-1.1-1.04-1.78a6.55 6.55 0 0 1-.36-2.2c0-.81.12-1.55.36-2.24.24-.69.59-1.29 1.04-1.81a4.76 4.76 0 0 1 1.67-1.21c.66-.29 1.4-.44 2.23-.44.59 0 1.16.09 1.68.26.53.17 1 .42 1.42.75.42.33.76.73 1.03 1.22.27.48.44 1.04.51 1.66h-2.3a1.67 1.67 0 0 0-.25-.75zM-156.47 411.93v1.99h-5.69v2.31h5.23v1.84h-5.23v2.64h5.82v1.99h-8.19v-10.79h8.06zM-155.01 415.13c.24-.69.59-1.29 1.04-1.81a4.76 4.76 0 0 1 1.67-1.21c.66-.29 1.4-.44 2.23-.44.84 0 1.58.15 2.24.44.65.29 1.21.69 1.66 1.21.45.51.8 1.12 1.04 1.81s.36 1.44.36 2.24c0 .79-.12 1.52-.36 2.2-.24.68-.59 1.27-1.04 1.78-.45.5-1.01.9-1.66 1.19-.66.29-1.4.43-2.24.43-.83 0-1.57-.14-2.23-.43-.66-.29-1.22-.68-1.67-1.19-.45-.5-.8-1.1-1.04-1.78a6.55 6.55 0 0 1-.36-2.2c0-.8.12-1.55.36-2.24zm2.17 3.56c.11.43.27.81.51 1.16s.53.62.91.82c.37.21.83.31 1.36.31s.99-.1 1.36-.31c.37-.21.68-.48.91-.82s.4-.73.51-1.16c.11-.43.16-.87.16-1.32 0-.47-.05-.93-.16-1.37s-.27-.84-.51-1.19a2.51 2.51 0 0 0-.91-.83c-.37-.21-.83-.31-1.36-.31s-.99.1-1.36.31c-.37.21-.68.48-.91.83-.23.35-.4.74-.51 1.19-.11.44-.16.9-.16 1.37 0 .46.06.9.16 1.32zm-.07-10.4l2.46 2.67h1.5l-1.6-2.67h-2.36z"/></svg>