<svg xmlns="http://www.w3.org/2000/svg" viewBox="0 0 32 32" xml:lang="en"><title xml:lang="en">Fog</title><defs><style>.svg-item-text{fill:#000}</style></defs><path d="M4.3 9.6h5.9v1.5H6.1V13h3.5v1.4H6.1V18H4.3V9.6zM15 9.4c2.6 0 4.1 1.9 4.1 4.4 0 2.4-1.5 4.4-4.1 4.4s-4.1-1.9-4.1-4.4c-.1-2.5 1.5-4.4 4.1-4.4zm0 7.2c1.7 0 2.3-1.4 2.3-2.8 0-1.5-.6-2.9-2.3-2.9s-2.3 1.4-2.3 2.9c0 1.4.6 2.8 2.3 2.8zm11.3.4c-.6.8-1.5 1.2-2.3 1.2-2.6 0-4.1-1.9-4.1-4.4s1.5-4.4 4.1-4.4c1.7 0 3.3 1.1 3.5 3h-1.8c-.1-1-.8-1.4-1.7-1.4-1.7 0-2.3 1.4-2.3 2.9 0 1.4.6 2.8 2.3 2.8 1.2 0 1.9-.6 2-1.8h-1.9v-1.4h3.5V18h-1.2l-.1-1z" class="svg-item-text"/></svg>