<svg xmlns="http://www.w3.org/2000/svg" viewBox="0 0 32 32"><title xml:lang="en">Light Cloud</title><defs><style>.svg-item-light-cloud{fill:#ddd}</style></defs><path class="svg-item-light-cloud" d="M23 8.2h-.6c-.8-2.9-3.3-5-6.4-5-3.1 0-5.7 2.1-6.4 5H9c-2.7 0-4.9 2.2-4.9 4.9S6.3 18 9 18h14c2.7 0 4.9-2.2 4.9-4.9S25.7 8.2 23 8.2zm0 7.5H9c-1.4 0-2.6-1.2-2.6-2.6s1.2-2.6 2.6-2.6c.9 0 1.8.5 2.2 1.3l2-1.2c-.4-.6-.9-1.2-1.5-1.6.4-2 2.2-3.5 4.3-3.5 2.4 0 4.4 2 4.4 4.4 0 .9-.3 1.8-.8 2.5h2.6c.2-.6.4-1.3.5-1.9h.4c1.4 0 2.6 1.2 2.6 2.6s-1.2 2.6-2.7 2.6z"/></svg>