<?xml version="1.0" standalone="no"?>
<!DOCTYPE svg PUBLIC "-//W3C//DTD SVG 1.1//EN" "http://www.w3.org/Graphics/SVG/1.1/DTD/svg11.dtd" >
<svg xmlns="http://www.w3.org/2000/svg">
<metadata>
Created by FontPrep 20130207 at Fri Jul 24 14:08:06 2015
 By Vinny Nota
Digitized data copyright The Monotype Corporation 1991-1995. All rights reserved. Gill Sans is a trademark of The Monotype Corporation which may be registered in certain jurisdictions.
</metadata>
<defs>
<font id="954f9f39591f03addb6e99cb7445c9af" horiz-adv-x='1024' >
  <font-face 
    font-family="GillSansMT"
    font-weight="400"
    font-stretch="normal"
    units-per-em="2048"
    panose-1="2 11 5 2 2 1 4 2 2 3"
    ascent="1638"
    descent="-410"
    x-height="920"
    cap-height="1397"
    bbox="-332 -578 2132 1880"
    underline-thickness="102"
    underline-position="-103"
    unicode-range="U+0020-FB02"
  />
<missing-glyph horiz-adv-x="2048" 
d="M384 128h1280v1280h-1280v-1280zM256 0v1536h1536v-1536h-1536z" />
    <glyph glyph-name=".notdef" horiz-adv-x="2048" 
d="M384 128h1280v1280h-1280v-1280zM256 0v1536h1536v-1536h-1536z" />
    <glyph glyph-name=".null" horiz-adv-x="0" 
 />
    <glyph glyph-name="nonmarkingreturn" horiz-adv-x="569" 
 />
    <glyph glyph-name="space" unicode=" " horiz-adv-x="569" 
 />
    <glyph glyph-name="exclam" unicode="!" horiz-adv-x="555" 
d="M164 1122q0 293 114 293t113 -285q0 -237 -45 -485l-27 -153l-16 -58q-9 -31 -27 -31q-11 0 -20 33l-16 51q-21 60 -48.5 273t-27.5 362zM401 106q0 -52 -35.5 -87t-87.5 -35t-89 35t-37 87t36 88.5t89 36.5t88.5 -36.5t35.5 -88.5z" />
    <glyph glyph-name="quotedbl" unicode="&#x22;" horiz-adv-x="725" 
d="M426 1466h205v-239l-47 -281h-109l-49 281v239zM94 1466h205v-239l-45 -281h-111l-49 281v239z" />
    <glyph glyph-name="numbersign" unicode="#" horiz-adv-x="1196" 
d="M848 871h-422l-78 -371h424zM4 871v123h326l86 403h121l-86 -403h421l84 403h123l-86 -403h199v-123h-223l-76 -371h299v-123h-324l-84 -399h-122l86 399h-424l-84 -399h-123l84 399h-197v123h223l78 371h-301z" />
    <glyph glyph-name="dollar" unicode="$" horiz-adv-x="1110" 
d="M829 344q0 59 -30.5 97.5t-110.5 80.5l-31 17v-371q172 40 172 176zM305 994q0 -61 35 -99t124 -75q15 -6 25 -11v352q-81 -11 -132.5 -58.5t-51.5 -108.5zM657 1415v-74q199 -30 306 -120v-230q-125 128 -306 170v-405q182 -54 276.5 -157.5t94.5 -238.5t-93 -241
q-46 -53 -107.5 -86t-170.5 -51v-222h-168v222q-170 16 -385 143v252q96 -87 185.5 -138t199.5 -73v440q-168 58 -236.5 108t-107.5 120.5t-39 142.5q0 141 105 240.5t278 123.5v74h168z" />
    <glyph glyph-name="percent" unicode="%" horiz-adv-x="1384" 
d="M360 1262q-68 0 -115 -48t-47 -114t48 -113t114 -47t114 47t48 114t-47 114t-115 47zM362 1413q129 0 220 -92.5t91 -220.5t-91.5 -220t-219.5 -92t-219.5 92t-91.5 220t91 220.5t220 92.5zM1020 457q-67 0 -113.5 -47.5t-46.5 -113.5t46.5 -113.5t113.5 -47.5t114 46.5
t47 114.5t-47 114.5t-114 46.5zM1020 608q128 0 220.5 -91.5t92.5 -219.5t-91.5 -217.5t-221.5 -89.5t-221 90t-91 218t92 219t220 91zM1071 1417h153l-919 -1433h-154z" />
    <glyph glyph-name="ampersand" unicode="&#x26;" horiz-adv-x="1280" 
d="M737 1057q0 61 -44.5 102t-111.5 41t-110 -38t-43 -94t34 -120.5t93 -118.5l76 54q106 75 106 174zM258 317q0 -59 51 -101t115 -42t134.5 32t125.5 83l45 41l-227 262l-88 -62q-156 -105 -156 -213zM406 -16q-145 0 -246 94.5t-101 230.5q0 98 49.5 177t161.5 161l3 3
q66 49 114 75q-158 169 -158 318t96.5 238t250.5 89t252 -87t98 -222q0 -183 -244 -356l-14 -11l196 -225q86 94 150 225h200q-72 -186 -227 -366l283 -328h-256l-162 190l-74 -63q-71 -59 -175.5 -101t-196.5 -42z" />
    <glyph glyph-name="quotesingle" unicode="'" horiz-adv-x="385" 
d="M90 1466h205v-245l-47 -275h-113l-45 275v245z" />
    <glyph glyph-name="parenleft" unicode="(" horiz-adv-x="662" 
d="M342 465q0 -546 295 -934h-113l-30 37q-113 136 -167.5 223t-108.5 226q-87 222 -87 456t87 453.5t306 488.5h113q-125 -186 -181.5 -318t-85 -302.5t-28.5 -329.5z" />
    <glyph glyph-name="parenright" unicode=")" horiz-adv-x="662" 
d="M319 477q0 536 -294 938h112l31 -37q112 -133 166.5 -220t108.5 -227q87 -222 87 -453q0 -340 -118.5 -545t-274.5 -402h-112q130 196 212 399.5t82 546.5z" />
    <glyph glyph-name="asterisk" unicode="*" horiz-adv-x="854" 
d="M449 1102q21 0 36 -21l172 164q54 51 88 51t53 -20.5t19 -50.5q0 -68 -78 -88l-241 -86q4 -13 4 -25t-4 -22l231 -87l45 -22q17 -10 30 -30.5t13 -40.5t-19.5 -43t-45.5 -23q-50 0 -117 67l-150 150q-21 -21 -41 -21l41 -211q9 -39 9 -92q0 -88 -69 -88t-69 96q0 27 6 52
l52 243q-19 2 -39 21l-160 -148q-75 -67 -107 -67t-52.5 20t-20.5 47q0 66 123 107l202 70q-4 16 -4 24l4 23l-231 86q-90 32 -90 86q0 29 20.5 52t46.5 23t68 -32l27 -21l174 -164q17 19 39 21l-39 205l-10 43q-5 23 -5 45q0 92 69 92t69 -82q0 -29 -13 -94l-41 -209h5z
" />
    <glyph glyph-name="plus" unicode="+" horiz-adv-x="1196" 
d="M513 237v402h-399v168h399v399h170v-399h399v-168h-399v-402h-170z" />
    <glyph glyph-name="comma" unicode="," horiz-adv-x="449" 
d="M78 131q0 54 36 93.5t92 39.5t95 -54t39 -152t-64 -181.5t-176 -118.5v37q45 43 63 86.5t21 118.5q-106 31 -106 131z" />
    <glyph glyph-name="hyphen" unicode="-" horiz-adv-x="662" 
d="M82 551h498v-195h-498v195z" />
    <glyph glyph-name="period" unicode="." horiz-adv-x="449" 
d="M223 223q51 0 87 -35.5t36 -85.5t-35 -84t-87 -34t-87 34t-35 84t35 85.5t86 35.5z" />
    <glyph glyph-name="slash" unicode="/" horiz-adv-x="575" 
d="M5 -18l402 1434h144l-401 -1434h-145z" />
    <glyph glyph-name="zero" unicode="0" 
d="M522 1225h-10q-115 0 -182.5 -141.5t-67.5 -386.5t66 -386t182 -141t183 141t67 383t-64.5 386.5t-173.5 144.5zM514 1415q198 0 323.5 -201.5t125.5 -515.5t-125.5 -513t-327.5 -199t-324.5 195t-122.5 515t126.5 519.5t324.5 199.5z" />
    <glyph glyph-name="one" unicode="1" 
d="M414 1397h200v-1397h-200v1397z" />
    <glyph glyph-name="two" unicode="2" 
d="M954 193v-193h-884v14l84 99q388 480 444.5 618.5t56.5 240.5t-66.5 173.5t-164.5 71.5q-189 0 -326 -189v254q163 133 341 133t296.5 -122t118.5 -305t-104.5 -356t-284.5 -388l-43 -51h532z" />
    <glyph glyph-name="three" unicode="3" 
d="M369 813h12q131 0 199.5 54t68.5 152t-66.5 156t-174.5 58t-242 -68v191q122 61 266 61q193 0 304.5 -101t111.5 -276q0 -106 -43 -178.5t-137 -124.5q82 -32 141 -104t59 -241t-122 -288.5t-294 -119.5t-321 77v218q158 -99 307 -99q101 0 162.5 60t61.5 151t-40 139
t-79.5 66t-173.5 33v184z" />
    <glyph glyph-name="four" unicode="4" 
d="M614 631v405l-323 -405h323zM809 1415v-784h156v-170h-156v-461h-195v461h-591v86l704 868h82z" />
    <glyph glyph-name="five" unicode="5" 
d="M207 1397h620v-178h-438v-353q21 2 43 2q203 0 334 -123.5t131 -317.5t-129.5 -317.5t-317.5 -123.5t-348 82v206q151 -98 286 -98t220.5 73.5t85.5 182.5t-93 183.5t-222 74.5t-172 -20v727z" />
    <glyph glyph-name="six" unicode="6" 
d="M291 438q0 -118 68.5 -194t170.5 -76t164 65t62 165t-66.5 162.5t-175.5 62.5q-56 0 -101.5 -17t-113.5 -63q-8 -47 -8 -105zM563 807q165 0 278 -117.5t113 -289.5t-123 -294t-309 -122t-308 138.5t-122 362.5q0 346 180 569t357 347l20 14l121 -153
q-160 -103 -265.5 -225t-162.5 -287q111 57 221 57z" />
    <glyph glyph-name="seven" unicode="7" 
d="M100 1397h904l-633 -1413l-178 75l512 1147h-605v191z" />
    <glyph glyph-name="eight" unicode="8" 
d="M756 375v20q0 96 -68.5 156.5t-176.5 60.5t-175.5 -61t-67.5 -158t69 -158t177 -61t175 56t67 145zM739 1018q0 88 -62.5 147.5t-158.5 59.5t-158.5 -58t-62.5 -147t65.5 -151t157.5 -62t155.5 61.5t63.5 149.5zM98 1022q0 164 123 278.5t299 114.5t297 -113.5
t121 -289.5t-174 -299q194 -112 194 -330q0 -173 -126 -286t-317 -113t-320 115.5t-129 285.5q0 213 198 328q-89 72 -127.5 143.5t-38.5 165.5z" />
    <glyph glyph-name="nine" unicode="9" 
d="M737 956q0 121 -67.5 198t-169.5 77t-165 -65.5t-63 -160.5t69 -161t173 -66t211 74q12 80 12 104zM447 594q-144 0 -258.5 119t-114.5 289t122 291.5t309 121.5t313 -143t126 -382t-158 -498.5t-403 -407.5l-123 145q155 98 271 237.5t155 286.5q-95 -59 -239 -59z" />
    <glyph glyph-name="colon" unicode=":" horiz-adv-x="449" 
d="M232 938q50 0 86 -36t36 -86t-36 -86t-86 -36t-85.5 36t-35.5 86t35.5 86t85.5 36zM215 227q51 0 87 -36.5t36 -86.5t-36 -85t-86 -35t-86 35t-36 85t35 86.5t86 36.5z" />
    <glyph glyph-name="semicolon" unicode=";" horiz-adv-x="469" 
d="M244 938q50 0 86.5 -36t36.5 -86t-36 -86t-86 -36t-86 36t-36 86t35.5 86t85.5 36zM102 131q0 54 36.5 93.5t91.5 39.5t95 -55t40 -151t-64 -180.5t-176 -119.5v37q43 41 61 84t21 111l2 10q-107 31 -107 131z" />
    <glyph glyph-name="less" unicode="&#x3c;" horiz-adv-x="1196" 
d="M112 641v168l971 410v-179l-770 -316l770 -319v-179z" />
    <glyph glyph-name="equal" unicode="=" horiz-adv-x="1196" 
d="M1082 417h-968v168h968v-168zM1082 862h-968v168h968v-168z" />
    <glyph glyph-name="greater" unicode="&#x3e;" horiz-adv-x="1196" 
d="M1083 641l-971 -415v179l769 319l-769 316v179l971 -410v-168z" />
    <glyph glyph-name="question" unicode="?" horiz-adv-x="682" 
d="M438 104q0 -52 -36 -86t-88 -34t-85.5 34t-33.5 85t35 87.5t86 36.5t86.5 -35.5t35.5 -87.5zM594 1118q0 -80 -32.5 -169t-154.5 -277t-122 -273q0 -13 6 -41q-68 31 -97.5 74.5t-29.5 115.5t23.5 127t111.5 193t88 214t-38.5 112.5t-94.5 36.5t-121 -33l131 219
q162 -6 246 -90.5t84 -208.5z" />
    <glyph glyph-name="at" unicode="@" horiz-adv-x="2068" 
d="M678 430q0 -124 61 -204.5t154 -80.5q139 0 250.5 155t111.5 349q0 130 -63.5 209.5t-167.5 79.5q-135 0 -240.5 -155.5t-105.5 -352.5zM1012 1083q192 0 301 -184l35 156h180l-160 -742q-14 -64 -14 -88t20 -43.5t49 -19.5q65 0 166.5 83.5t160 209.5t58.5 262
q0 270 -204 450.5t-510 180.5q-361 0 -597.5 -244.5t-236.5 -613.5t227.5 -570t638.5 -201q242 0 422 82q68 32 141 81.5t136 135.5h180q-59 -120 -198 -230.5t-303.5 -162t-381.5 -51.5q-471 0 -741.5 238.5t-270.5 653.5q0 287 133.5 535.5t353 370t507.5 121.5
q372 0 614 -221t242 -561q0 -177 -86 -343.5t-227 -268t-291 -101.5q-101 0 -143.5 36.5t-51.5 129.5q-66 -78 -146 -121t-159 -43q-155 0 -258.5 128t-103.5 302t74 322.5t195 239.5t249 91z" />
    <glyph glyph-name="A" unicode="A" horiz-adv-x="1366" 
d="M893 592l-225 506l-209 -506h434zM600 1405h141l625 -1405h-205l-186 414h-594l-176 -414h-205z" />
    <glyph glyph-name="B" unicode="B" horiz-adv-x="1153" 
d="M541 621h-187v-443h197q164 0 222.5 25.5t94 79.5t35.5 117t-37.5 116t-106.5 79t-218 26zM526 1219h-172v-420h133q160 0 227.5 61t67.5 158q0 201 -256 201zM627 0h-473v1397h366q173 0 321 -71t148 -284q0 -214 -213 -303q153 -29 243.5 -126t90.5 -218t-55 -205
t-161.5 -137t-266.5 -53z" />
    <glyph glyph-name="C" unicode="C" horiz-adv-x="1450" 
d="M877 -16q-261 0 -424 94t-258 259t-95 357q0 305 217.5 513t536.5 208q220 0 489 -115v-215q-245 140 -482 140t-395.5 -151.5t-158.5 -380.5t156.5 -377t404.5 -148t490 156v-220q-220 -120 -481 -120z" />
    <glyph glyph-name="D" unicode="D" horiz-adv-x="1536" 
d="M606 1219h-250v-1039h256q244 0 335.5 52t137.5 98q148 150 148 377t-152 369q-112 106 -221.5 124.5t-253.5 18.5zM156 2v1395h471q285 0 451 -85.5t264 -251.5t98 -362q0 -140 -54 -268t-155 -226t-236 -150q-79 -31 -145 -41.5t-252 -10.5h-442z" />
    <glyph glyph-name="E" unicode="E" 
d="M154 1397h792v-178h-592v-426h572v-179h-572v-434h611v-178h-811v1395z" />
    <glyph glyph-name="F" unicode="F" horiz-adv-x="961" 
d="M156 1397h745v-178h-545v-390h545v-178h-545v-651h-200v1397z" />
    <glyph glyph-name="G" unicode="G" horiz-adv-x="1516" 
d="M872 158q113 0 306 61v291h-269v178h469v-592q-258 -112 -512 -112q-347 0 -554.5 202.5t-207.5 507.5t215 513t539 208q118 0 224 -25.5t268 -93.5v-204q-250 145 -488 145t-394.5 -156.5t-156.5 -388.5t157 -383t404 -151z" />
    <glyph glyph-name="H" unicode="H" horiz-adv-x="1493" 
d="M1139 1397h200v-1397h-200v608h-785v-608h-200v1397h200v-604h785v604z" />
    <glyph glyph-name="I" unicode="I" horiz-adv-x="512" 
d="M156 1397h200v-1397h-200v1397z" />
    <glyph glyph-name="J" unicode="J" horiz-adv-x="512" 
d="M156 1397h200v-1379q0 -193 -39.5 -285.5t-127.5 -148t-212 -55.5q-19 0 -65 6l-37 186h51q86 0 131.5 21t72 74t26.5 225v1356z" />
    <glyph glyph-name="K" unicode="K" horiz-adv-x="1343" 
d="M356 0h-200v1397h200v-639l588 639h250l-606 -662l755 -735h-274l-713 690v-690z" />
    <glyph glyph-name="L" unicode="L" horiz-adv-x="1004" 
d="M154 1397h200v-1215h629v-182h-829v1397z" />
    <glyph glyph-name="M" unicode="M" horiz-adv-x="1599" 
d="M1452 1397v-1397h-201v1087l-430 -540h-37l-434 540v-1087h-200v1397h188l465 -574l463 574h186z" />
    <glyph glyph-name="N" unicode="N" horiz-adv-x="1599" 
d="M1264 1397h190v-1397h-172l-934 1075v-1075h-188v1397h162l942 -1084v1084z" />
    <glyph glyph-name="O" unicode="O" horiz-adv-x="1686" 
d="M842 1227q-234 0 -388.5 -149.5t-154.5 -379.5t154.5 -380t388.5 -150t390.5 153t156.5 378t-156.5 376.5t-390.5 151.5zM840 1417q324 0 539.5 -205t215.5 -514t-217.5 -511.5t-541.5 -202.5t-534 202.5t-210 511.5t212 514t536 205z" />
    <glyph glyph-name="P" unicode="P" horiz-adv-x="1044" 
d="M551 1221h-207v-437h219q122 0 188 57.5t66 164.5q0 215 -266 215zM143 0v1399h443q200 0 319 -108t119 -290q0 -122 -61 -216t-167 -136.5t-304 -42.5h-148v-606h-201z" />
    <glyph glyph-name="Q" unicode="Q" horiz-adv-x="1686" 
d="M842 1227q-236 0 -390 -152t-154 -380t155 -377.5t387 -149.5t390.5 153t158.5 379t-155.5 376.5t-391.5 150.5zM90 694q0 313 213 518t538 205t539.5 -203.5t214.5 -511.5q0 -259 -162 -455t-419 -247l53 -20q247 -95 356 -95q60 0 140 27l-201 -195q-189 10 -349.5 86
t-336.5 197q-255 46 -420.5 242t-165.5 452z" />
    <glyph glyph-name="R" unicode="R" horiz-adv-x="1237" 
d="M420 1227h-60v-441h76q152 0 208.5 26t88 79t31.5 119t-35 119.5t-98.5 75.5t-210.5 22zM160 0v1397h350q212 0 336.5 -105t124.5 -284q0 -122 -61 -211t-175 -133q67 -44 131 -120t158 -230t139 -214l74 -100h-238l-61 92q-3 5 -12 17l-39 55l-129 211
q-117 162 -182.5 197.5t-163.5 35.5h-52v-608h-200z" />
    <glyph glyph-name="S" unicode="S" horiz-adv-x="938" 
d="M84 1044q0 165 114.5 268t293.5 103t325 -98v-227q-151 145 -325 145q-98 0 -161 -45.5t-63 -112.5t46 -122t149 -115l153 -90q256 -152 256 -388q0 -168 -112 -273t-306 -105t-364 127v254q162 -205 375 -205q94 0 156.5 52.5t62.5 131.5q0 128 -184 242l-152 92
q-143 87 -203.5 171.5t-60.5 194.5z" />
    <glyph glyph-name="T" unicode="T" horiz-adv-x="1237" 
d="M35 1399h1167v-178h-487v-1221h-201v1221h-479v178z" />
    <glyph glyph-name="U" unicode="U" horiz-adv-x="1450" 
d="M1126 1397h201v-793q0 -161 -33 -276t-133 -201q-167 -143 -437 -143t-435 142q-101 89 -132.5 200t-31.5 280v791h201v-793q0 -197 45 -274t137 -123.5t217 -46.5q178 0 290 93q59 50 85 118t26 233v793z" />
    <glyph glyph-name="V" unicode="V" horiz-adv-x="1237" 
d="M1038 1397h199l-590 -1403h-45l-602 1403h201l420 -981z" />
    <glyph glyph-name="W" unicode="W" horiz-adv-x="2134" 
d="M1933 1397h199l-565 -1403h-43l-457 1136l-461 -1136h-43l-563 1403h201l385 -963l387 963h190l389 -963z" />
    <glyph glyph-name="X" unicode="X" horiz-adv-x="1450" 
d="M1165 1397h242l-557 -674l596 -723h-242l-475 578l-481 -578h-244l602 723l-559 674h244l438 -533z" />
    <glyph glyph-name="Y" unicode="Y" horiz-adv-x="1237" 
d="M721 0h-205v739l-516 658h242l374 -482l379 482h242l-516 -658v-739z" />
    <glyph glyph-name="Z" unicode="Z" horiz-adv-x="1323" 
d="M82 1399h1204l-893 -1221h893v-178h-1261l895 1221h-838v178z" />
    <glyph glyph-name="bracketleft" unicode="[" horiz-adv-x="682" 
d="M176 1397h477v-164h-280v-1520h280v-164h-477v1848z" />
    <glyph glyph-name="backslash" unicode="\" horiz-adv-x="575" 
d="M426 -18l-402 1434h145l401 -1434h-144z" />
    <glyph glyph-name="bracketright" unicode="]" horiz-adv-x="682" 
d="M506 -451h-475v164h278v1520h-278v164h475v-1848z" />
    <glyph glyph-name="asciicircum" unicode="^" horiz-adv-x="961" 
d="M479 1194l-241 -598h-185l355 801h145l354 -801h-182z" />
    <glyph glyph-name="underscore" unicode="_" horiz-adv-x="1130" 
d="M1161 -406h-1190v132h1190v-132z" />
    <glyph glyph-name="grave" unicode="`" horiz-adv-x="683" 
d="M327 1419l138 -300h-112l-230 300h204z" />
    <glyph glyph-name="a" unicode="a" horiz-adv-x="874" 
d="M236 240q0 -56 37 -92.5t109 -36.5t146 71v273l-122 -47q-93 -37 -131.5 -74.5t-38.5 -93.5zM707 553v-391q1 -47 33 -47t102 49v-111q-62 -40 -99.5 -54.5t-78.5 -14.5q-117 0 -138 92q-116 -90 -230 -90t-177.5 63t-63.5 155t62.5 160.5t177.5 108.5l233 80v49
q0 166 -166 166q-149 0 -290 -154v199q106 125 310 125t258 -93t60.5 -134.5t6.5 -157.5z" />
    <glyph glyph-name="b" unicode="b" 
d="M506 154q110 0 186 86t76 222t-72 222t-180 86t-213 -90v-498q93 -28 203 -28zM121 1397h182v-543q118 86 252 86q175 0 286 -132t111 -346t-132.5 -346t-354.5 -132q-89 0 -187.5 19t-156.5 48v1346z" />
    <glyph glyph-name="c" unicode="c" horiz-adv-x="897" 
d="M551 -16q-216 0 -344.5 128t-128.5 344t125 349t329 133q71 0 127.5 -13.5t139.5 -50.5v-194q-139 88 -259 88t-199 -86t-79 -224t85.5 -221t230.5 -83q105 0 241 61v-180q-137 -51 -268 -51z" />
    <glyph glyph-name="d" unicode="d" horiz-adv-x="1044" 
d="M743 156v583q-85 43 -172 43q-136 0 -216.5 -89t-80.5 -235t70 -224q42 -46 89 -62t169 -16h141zM743 1397h183v-1397h-389q-204 0 -325.5 129t-121.5 339t127.5 341t325.5 131q92 0 200 -39v496z" />
    <glyph glyph-name="e" unicode="e" horiz-adv-x="981" 
d="M512 780q-98 0 -160.5 -59t-81.5 -168h463q-7 109 -65 168t-156 59zM913 444h-647q7 -132 88.5 -210t210.5 -78q180 0 332 112v-178q-84 -56 -166.5 -80t-214.5 -24t-225.5 63t-150 169.5t-56.5 246.5q0 210 119 341.5t305 131.5t295.5 -128t109.5 -343v-23z" />
    <glyph glyph-name="f" unicode="f" horiz-adv-x="512" 
d="M150 920v55q0 222 94.5 331t226.5 109q57 0 135 -18v-178q-44 16 -84 16q-107 0 -148.5 -57t-41.5 -203v-55h164v-164h-164v-756h-182v756h-132v164h132z" />
    <glyph glyph-name="g" unicode="g" horiz-adv-x="874" 
d="M402 -43q-112 0 -171 -39t-59 -100q0 -142 256 -142q121 0 187.5 36t66.5 100t-84 104.5t-196 40.5zM426 762q-76 0 -128 -50t-52 -120t51 -117t129 -47t129 47t51 119t-52 120t-128 48zM82 602q0 147 107.5 232.5t293.5 85.5h379v-142h-186q54 -55 75 -100t21 -110
t-41 -134.5t-105.5 -106.5t-211.5 -59q-103 -15 -103 -71q0 -32 38.5 -52.5t173.5 -50.5t183.5 -50.5t87.5 -59.5q66 -66 66 -166q0 -131 -116.5 -209t-312.5 -78t-313.5 78.5t-117.5 210.5q0 187 231 241q-92 59 -92 110t39.5 87t106.5 53q-203 90 -203 291z" />
    <glyph glyph-name="h" unicode="h" 
d="M125 1397h182v-598q114 139 283 139q92 0 165 -46t108.5 -127t35.5 -241v-524h-182v569q0 101 -49.5 162.5t-119.5 61.5t-123.5 -31t-117.5 -103v-659h-182v1397z" />
    <glyph glyph-name="i" unicode="i" horiz-adv-x="449" 
d="M133 920h182v-920h-182v920zM224 1307q44 0 76 -31.5t32 -75.5t-32 -76t-76 -32t-75.5 33t-31.5 75t31.5 74.5t75.5 32.5z" />
    <glyph glyph-name="j" unicode="j" horiz-adv-x="449" 
d="M127 920h182v-1051q0 -239 -184 -338l-135 133q63 22 100 77t37 128v1051zM214 1307q44 0 76 -31.5t32 -76.5t-31 -76t-75 -31t-77 32t-33 75t32 75.5t76 32.5z" />
    <glyph glyph-name="k" unicode="k" horiz-adv-x="981" 
d="M129 1397h182v-1397h-182v1397zM727 920h217l-393 -451l473 -469h-244l-461 469z" />
    <glyph glyph-name="l" unicode="l" horiz-adv-x="449" 
d="M133 1397h182v-1397h-182v1397z" />
    <glyph glyph-name="m" unicode="m" horiz-adv-x="1579" 
d="M1276 545q0 237 -194 237q-100 0 -199 -114v-668h-183v512q0 153 -41 213.5t-143 60.5q-57 0 -104.5 -26t-108.5 -92v-668h-182v920h182v-121q139 139 272 139q175 0 271 -166q146 168 305 168q134 0 220.5 -98t86.5 -299v-543h-182v545z" />
    <glyph glyph-name="n" unicode="n" 
d="M311 920v-117q122 135 277 135q86 0 160 -44.5t112.5 -122t38.5 -245.5v-526h-182v524q0 141 -43 201.5t-144 60.5q-129 0 -219 -129v-657h-186v920h186z" />
    <glyph glyph-name="o" unicode="o" horiz-adv-x="1130" 
d="M561 758q-133 0 -217 -86t-84 -218t86 -216t220 -84t220 84t86 216t-89 218t-222 86zM568 922q211 0 350 -135.5t139 -337.5t-141.5 -333.5t-351.5 -131.5t-349 133.5t-139 334.5t140.5 335.5t351.5 134.5z" />
    <glyph glyph-name="p" unicode="p" 
d="M432 750h-129v-566q84 -43 176 -43q128 0 209.5 89t81.5 229q0 90 -38.5 159t-105 100.5t-194.5 31.5zM117 -469v1389h319q245 0 381.5 -122t136.5 -335t-128.5 -346t-327.5 -133q-88 0 -195 39v-492h-186z" />
    <glyph glyph-name="q" unicode="q" 
d="M725 750h-115q-118 0 -174 -15t-105 -70q-75 -85 -75 -218t84.5 -222.5t218.5 -89.5q31 0 36 1l130 38v576zM563 920h344v-1389h-182v485q-119 -32 -201 -32q-196 0 -324 132t-128 341t133 336t358 127z" />
    <glyph glyph-name="r" unicode="r" horiz-adv-x="811" 
d="M324 920v-211l10 16q132 213 264 213q103 0 215 -104l-96 -160q-95 90 -179 90t-149 -84t-65 -199v-481h-183v920h183z" />
    <glyph glyph-name="s" unicode="s" horiz-adv-x="788" 
d="M378 141q56 0 97 27.5t41 67.5t-26.5 66.5t-114.5 76.5q-176 98 -230.5 167.5t-54.5 163.5t83 161t215 67t274 -76v-180q-162 98 -265 98q-53 0 -85.5 -23t-32.5 -57t29.5 -63t103.5 -70l65 -37q230 -130 230 -288q0 -113 -88.5 -185.5t-227.5 -72.5q-82 0 -146 17.5
t-161 64.5v196q77 -54 157.5 -87.5t136.5 -33.5z" />
    <glyph glyph-name="t" unicode="t" horiz-adv-x="682" 
d="M342 920h291v-164h-291v-451q0 -158 131 -158q98 0 207 66v-170q-106 -59 -230 -59t-207 73q-51 43 -67 104.5t-16 186.5v408h-160v18l342 336v-190z" />
    <glyph glyph-name="u" unicode="u" 
d="M715 117q-121 -133 -287 -133q-80 0 -154 43.5t-111.5 118t-37.5 247.5v527h182v-525q0 -145 41.5 -202.5t145.5 -57.5q130 0 221 127v658h182v-920h-182v117z" />
    <glyph glyph-name="v" unicode="v" horiz-adv-x="897" 
d="M692 920h197l-406 -936h-61l-416 936h199l248 -566z" />
    <glyph glyph-name="w" unicode="w" horiz-adv-x="1473" 
d="M1278 920h195l-406 -936h-57l-273 641l-268 -641h-59l-410 936h195l241 -558l234 558h135l233 -558z" />
    <glyph glyph-name="x" unicode="x" 
d="M764 920h233l-379 -453l406 -467h-233l-289 330l-273 -330h-229l387 467l-387 453h229l273 -316z" />
    <glyph glyph-name="y" unicode="y" horiz-adv-x="897" 
d="M692 920h205l-651 -1389h-203l313 666l-356 723h207l248 -519z" />
    <glyph glyph-name="z" unicode="z" horiz-adv-x="854" 
d="M43 920h786l-487 -750h487v-170h-806l483 750h-463v170z" />
    <glyph glyph-name="braceleft" unicode="{" horiz-adv-x="682" 
d="M57 449v163q153 0 179 105t28 299t14.5 263t54.5 121t95 71.5t152 19.5h57v-156h-33q-105 0 -137.5 -39.5t-32.5 -167.5v-147q0 -253 -60.5 -331t-150.5 -120q118 -49 164.5 -148t46.5 -304v-144q0 -128 32 -167t138 -39h33v-156h-57q-102 0 -156 19t-94 73t-52 122
t-14 262t-20 262.5t-70 103.5t-117 35z" />
    <glyph glyph-name="bar" unicode="|" horiz-adv-x="532" 
d="M188 -472v1869h157v-1869h-157z" />
    <glyph glyph-name="braceright" unicode="}" horiz-adv-x="682" 
d="M47 1491h55q101 0 155.5 -19.5t94.5 -73.5t52 -122t14 -260t27.5 -298t179.5 -106v-163q-65 0 -118 -35.5t-71 -106t-19 -262.5t-13 -260.5t-54 -122.5t-93.5 -72t-154.5 -18h-55v156h31q107 0 139.5 39t32.5 167v144q0 204 46 303.5t163 148.5q-85 41 -147 112.5
t-62 338.5v147q0 129 -33 168t-139 39h-31v156z" />
    <glyph glyph-name="asciitilde" unicode="~" horiz-adv-x="1194" 
d="M350 670q-72 0 -127.5 -28.5t-136.5 -106.5v204q109 121 279 121q115 0 274 -69l80 -35q62 -29 133 -29q132 0 258 135v-211q-122 -114 -276 -114q-105 0 -246 61l-62 27q-104 45 -176 45z" />
    <glyph glyph-name="nbspace" unicode="&#xa0;" horiz-adv-x="569" 
 />
    <glyph glyph-name="exclamdown" unicode="&#xa1;" horiz-adv-x="555" 
d="M276 621q14 1 18 -19t24 -76q19 -56 45 -266t26 -358q1 -293 -113 -293q-114 -1 -114 267t45 503l14 74q20 104 30.5 136t24.5 32zM152 922q0 52 37 88.5t89 36.5t87.5 -35.5t35.5 -88.5t-35 -89.5t-88 -36.5t-89.5 36.5t-36.5 88.5z" />
    <glyph glyph-name="cent" unicode="&#xa2;" horiz-adv-x="897" 
d="M541 768q-124 0 -201.5 -88t-77.5 -228t100 -229l197 545h-18zM571 152q60 0 130.5 17.5t115.5 45.5v-176q-145 -57 -255 -57t-185 18l-141 -387h-97l158 426q-102 57 -160.5 166t-58.5 241q0 224 125.5 358t335.5 134q25 0 79 -6l121 338h95l-129 -359q20 -7 43 -15
t49 -24v-192q-63 51 -150 74l-209 -576q73 -26 133 -26z" />
    <glyph glyph-name="sterling" unicode="&#xa3;" horiz-adv-x="1087" 
d="M393 18q-121 0 -272 -34l162 602h-148v178h195q52 193 171 422t345 229q27 0 74 -8l114 -213q-58 31 -156 31q-201 0 -331 -398l-21 -63h156v-178h-209l-102 -387q30 4 109 4t151 -13l80 -14q37 -8 98 -8q133 0 207 45v-195q-106 -34 -188 -34t-134 8l-108 16
q-72 10 -193 10z" />
    <glyph glyph-name="currency" unicode="&#xa4;" horiz-adv-x="1130" 
d="M305 698q0 -108 76 -183.5t183 -75.5t183 75.5t76 183.5t-75.5 184t-183.5 76t-183.5 -76t-75.5 -184zM566 1122q133 0 236 -73l139 140l116 -119l-139 -136q71 -110 71 -236t-71 -235l139 -136l-116 -119l-139 140q-105 -73 -236 -73t-238 73l-139 -140l-115 119
l139 136q-71 109 -71 235t71 236l-139 136l115 119l139 -140q105 73 238 73z" />
    <glyph glyph-name="yen" unicode="&#xa5;" horiz-adv-x="1130" 
d="M659 0h-182v326h-416v137h416v143h-416v150h342l-403 710h199l288 -516q50 -86 76 -153q19 42 82 161l275 508h213l-404 -710h340v-150h-410v-143h410v-137h-410v-326z" />
    <glyph glyph-name="brokenbar" unicode="&#xa6;" horiz-adv-x="532" 
d="M188 -472v832h157v-832h-157zM188 701v696h157v-696h-157z" />
    <glyph glyph-name="section" unicode="&#xa7;" horiz-adv-x="831" 
d="M606 356q0 41 -12.5 79.5t-36.5 73.5t-123 134l-147 143q-64 -74 -64 -156t49 -153t158 -186l100 -107q34 35 55 83t21 89zM381 -338q60 0 103.5 44t43.5 106t-45 131.5t-168 201.5q-111 111 -180 212t-69 261t135 283q-56 97 -56 215t87.5 208.5t207.5 90.5t188 -48.5
t68 -125.5q0 -49 -30 -81t-70 -32t-64 24.5t-24 61.5v11q2 8 2 16q0 43 -64 43t-100.5 -37.5t-36.5 -101.5q0 -129 180 -299l95 -88q66 -61 124 -163.5t58 -202.5t-35 -172t-117 -154q72 -98 72 -226t-92 -218.5t-210 -90.5t-186.5 51.5t-68.5 130.5q0 52 33 89.5t78 37.5
t72.5 -27.5t27.5 -70.5l-6 -45q0 -14 14 -24.5t33 -10.5z" />
    <glyph glyph-name="dieresis" unicode="&#xa8;" horiz-adv-x="683" 
d="M534 1366q38 0 66.5 -28t28.5 -68t-26.5 -67.5t-66.5 -27.5t-68 28.5t-28 68.5t28 67t66 27zM148 1366q38 0 67 -28t29 -68t-27 -67.5t-67 -27.5t-67.5 28.5t-27.5 68.5t27.5 67t65.5 27z" />
    <glyph glyph-name="copyright" unicode="&#xa9;" horiz-adv-x="1516" 
d="M758 1292q-260 0 -444.5 -185t-184.5 -445t184.5 -443.5t444.5 -183.5t444 184t184 444t-184 444.5t-444 184.5zM758 1417q202 0 377 -101.5t276.5 -276.5t101.5 -377t-101 -376t-275.5 -275t-378.5 -101t-379 100.5t-276 275t-101 377.5t101.5 377.5t277 275.5
t377.5 101zM762 975q-120 0 -191 -86.5t-71 -230.5t67.5 -227t171.5 -83t170.5 51.5t89.5 140.5l123 -36q-31 -128 -128 -201.5t-236 -73.5q-180 0 -288 118.5t-108 314.5t108.5 309.5t295.5 113.5q131 0 219.5 -61t122.5 -174l-119 -29q-61 154 -227 154z" />
    <glyph glyph-name="ordfeminine" unicode="&#xaa;" horiz-adv-x="575" 
d="M172 997q0 -69 72 -69q43 0 90 37v147l-64 -22q-54 -20 -76 -41t-22 -52zM473 1182v-207q0 -45 10 -45q16 0 76 41v-86q-77 -47 -140 -47t-81 47q-73 -47 -146 -47t-117 41t-44 102q0 108 164 160l139 45v24q0 90 -92 90q-52 0 -97 -23.5t-104 -82.5v141q73 80 200 80
t179.5 -54.5t52.5 -178.5z" />
    <glyph glyph-name="guillemotleft" unicode="&#xab;" horiz-adv-x="1004" 
d="M238 461l303 -461h-181l-303 461l303 459h181zM653 461l303 -461h-180l-301 461l301 459h180z" />
    <glyph glyph-name="logicalnot" unicode="&#xac;" horiz-adv-x="1196" 
d="M1081 257h-170v438h-798v168h968v-606z" />
    <glyph glyph-name="sfthyphen" unicode="&#xad;" horiz-adv-x="661" 
d="M580 550v-194h-498v194h498z" />
    <glyph glyph-name="registered" unicode="&#xae;" horiz-adv-x="1516" 
d="M758 1292q-260 0 -444.5 -185t-184.5 -445t184.5 -443.5t444.5 -183.5t444 184t184 444t-184 444.5t-444 184.5zM758 1417q202 0 377 -101.5t276.5 -276.5t101.5 -377t-101 -376t-275.5 -275t-378.5 -101t-379 100.5t-276 275t-101 377.5t101.5 377.5t277 275.5
t377.5 101zM587 959v-244h160q102 0 149 29.5t47 95.5t-45.5 92.5t-160.5 26.5h-150zM587 258h-131v811h281q149 0 210.5 -23.5t98.5 -78.5t37 -133t-65 -141.5t-167 -71.5q46 -19 86.5 -62.5t102.5 -142.5l98 -158h-160l-71 127q-77 137 -122 177.5t-120 40.5h-78v-345z
" />
    <glyph glyph-name="overscore" unicode="&#xaf;" horiz-adv-x="1130" 
d="M-35 1496v132h1200v-132h-1200z" />
    <glyph glyph-name="degree" unicode="&#xb0;" horiz-adv-x="811" 
d="M236 1214q0 -70 50 -120t120 -50t118.5 50t48.5 120t-48.5 119t-118.5 49t-120 -49t-50 -119zM127 1214q0 114 82.5 195.5t196.5 81.5t195 -81.5t81 -195.5t-81 -196t-195 -82t-196.5 82t-82.5 196z" />
    <glyph glyph-name="plusminus" unicode="&#xb1;" horiz-adv-x="1196" 
d="M1082 0h-968v168h968v-168zM513 260v403h-399v167h399v399h170v-399h399v-167h-399v-403h-170z" />
    <glyph glyph-name="twosuperior" unicode="&#xb2;" horiz-adv-x="662" 
d="M604 791v-111h-547v14l43 45q125 128 213 240.5t88 182.5t-35.5 104t-95.5 34q-103 0 -194 -118v159q102 74 212 74t183.5 -64t73.5 -154t-37 -147t-211 -259h307z" />
    <glyph glyph-name="threesuperior" unicode="&#xb3;" horiz-adv-x="662" 
d="M233 1108h13q153 0 153 102q0 45 -35.5 72t-95.5 27t-153 -41v112q77 35 181 35t173.5 -53.5t69.5 -150.5t-97 -148q111 -42 111 -170q0 -97 -75.5 -160t-179.5 -63t-204 45v129q104 -60 176 -60q136 0 136 105q0 52 -34.5 78t-113.5 32l-25 2v107z" />
    <glyph glyph-name="acute" unicode="&#xb4;" horiz-adv-x="683" 
d="M566 1419l-226 -300h-112l135 300h203z" />
    <glyph glyph-name="mu1" unicode="&#xb5;" horiz-adv-x="1130" 
d="M793 0v109q-46 -71 -97.5 -100t-125.5 -29t-121.5 24.5t-96.5 87.5v-442h-174v1270h174v-447q0 -146 20.5 -209.5t70.5 -104t117 -40.5t121 38t75.5 99.5t21.5 212.5v451h174v-920h-159z" />
    <glyph glyph-name="paragraph" unicode="&#xb6;" horiz-adv-x="1110" 
d="M569 -406h-163v1043q-186 11 -295 122t-109 295t121 298t350 114h633v-174h-143v-1698h-170v1698h-224v-1698z" />
    <glyph glyph-name="middot" unicode="&#xb7;" horiz-adv-x="683" 
d="M741 721q0 -45 -31 -76.5t-76 -31.5t-76.5 32.5t-31.5 76.5t32 75.5t76 31.5t75.5 -31.5t31.5 -76.5z" />
    <glyph glyph-name="cedilla" unicode="&#xb8;" horiz-adv-x="683" 
d="M413 -33q115 -29 115 -149q0 -62 -61 -115t-195 -53q-37 0 -65 5v113q51 -4 86 -4t61 18t25 38q0 56 -96 56q-11 0 -23 -3l51 143h117z" />
    <glyph glyph-name="onesuperior" unicode="&#xb9;" horiz-adv-x="662" 
d="M260 1407h141v-727h-141v727z" />
    <glyph glyph-name="ordmasculine" unicode="&#xba;" horiz-adv-x="748" 
d="M372 1307q-80 0 -131 -50.5t-51 -124.5t51 -120.5t133 -46.5t133.5 47.5t51.5 122.5t-53.5 123.5t-133.5 48.5zM367 1415q144 0 238.5 -79.5t94.5 -202.5t-94 -203t-234 -80t-232.5 81.5t-92.5 203.5t88 201t232 79z" />
    <glyph glyph-name="guillemotright" unicode="&#xbb;" horiz-adv-x="1004" 
d="M766 459l-303 461h178l303 -461l-303 -459h-178zM350 459l-303 461h178l303 -461l-303 -459h-178z" />
    <glyph glyph-name="onequarter" unicode="&#xbc;" horiz-adv-x="1729" 
d="M258 1407h141v-727h-141v727zM1283 1415h139l-930 -1468h-137zM1448 336v172l-160 -172h160zM1587 737v-401h92v-100h-92v-236h-139v236h-348v51l420 450h67z" />
    <glyph glyph-name="onehalf" unicode="&#xbd;" horiz-adv-x="1729" 
d="M258 1407h141v-727h-141v727zM1222 1415h139l-930 -1468h-137zM1673 112v-111h-547v14l43 45q125 128 213 240t88 182t-36 104t-95 35q-103 0 -194 -118v159q101 74 211 74t184 -64t74 -154t-57 -177q-17 -27 -191 -229h307z" />
    <glyph glyph-name="threequarters" unicode="&#xbe;" horiz-adv-x="1729" 
d="M231 1108h13q153 0 153 102q1 45 -35 72t-96 27t-153 -41v112q77 35 181 35q104 1 174 -53q69 -54 69 -151t-97 -148q111 -42 111 -170q1 -97 -75 -160t-180 -63t-204 45v129q104 -60 176 -60q136 0 136 105q0 52 -34 78t-114 32l-25 2v107zM1259 1415h139l-930 -1468
h-137zM1448 336v172l-160 -172h160zM1587 737v-401h92v-100h-92v-236h-139v236h-348v51l420 450h67z" />
    <glyph glyph-name="questiondown" unicode="&#xbf;" horiz-adv-x="682" 
d="M287 921q0 51 36.5 86t88.5 35t87.5 -34t35.5 -86t-36 -87.5t-88 -35.5t-88 35.5t-36 86.5zM133 -92q0 80 32.5 169t154.5 276t122 272q0 11 -6 43q68 -32 96.5 -76.5t28.5 -115.5t-23.5 -126t-110.5 -194t-87 -213t37.5 -111t93.5 -37t123 33l-133 -217q-156 3 -242 87
t-86 210z" />
    <glyph glyph-name="Agrave" unicode="&#xc0;" horiz-adv-x="1366" 
d="M893 592l-225 506l-209 -506h434zM600 1405h141l625 -1405h-205l-186 414h-594l-176 -414h-205zM637 1800l138 -300h-112l-230 300h204z" />
    <glyph glyph-name="Aacute" unicode="&#xc1;" horiz-adv-x="1366" 
d="M893 592l-225 506l-209 -506h434zM600 1405h141l625 -1405h-205l-186 414h-594l-176 -414h-205zM908 1800l-226 -300h-112l135 300h203z" />
    <glyph glyph-name="Acircumflex" unicode="&#xc2;" horiz-adv-x="1366" 
d="M893 592l-225 506l-209 -506h434zM600 1405h141l625 -1405h-205l-186 414h-594l-176 -414h-205zM775 1809l193 -309h-112l-179 177l-171 -177h-108l187 309h190z" />
    <glyph glyph-name="Atilde" unicode="&#xc3;" horiz-adv-x="1366" 
d="M893 592l-225 506l-209 -506h434zM600 1405h141l625 -1405h-205l-186 414h-594l-176 -414h-205zM812 1691q61 0 74 86h78q-2 -121 -50 -181t-107 -61q-59 0 -152 40t-129 40q-70 0 -79 -80h-84q16 141 58 189t103 47q61 0 160 -40t128 -40z" />
    <glyph glyph-name="Adieresis" unicode="&#xc4;" horiz-adv-x="1366" 
d="M893 592l-225 506l-209 -506h434zM600 1405h141l625 -1405h-205l-186 414h-594l-176 -414h-205zM876 1706q38 0 66 -28t29 -68q0 -40 -27 -68q-26 -28 -66 -27t-68 29t-28 68t28 66q28 28 66 28zM490 1706q38 0 68 -28q28 -28 28 -68t-27 -68t-67 -27t-67 29
q-28 28 -28 68q-1 40 27 66q28 28 66 28z" />
    <glyph glyph-name="Aring" unicode="&#xc5;" horiz-adv-x="1366" 
d="M893 592l-225 506l-209 -506h434zM600 1405h141l625 -1405h-205l-186 414h-594l-176 -414h-205zM680 1799q-52 -1 -82 -31t-30 -78t34 -82t81 -34q48 0 82 33t34 80t-34 79t-85 33zM684 1880q78 0 134 -55t55 -134q1 -79 -55 -135t-134 -56t-134 56t-56 134t56 134
t134 56z" />
    <glyph glyph-name="AE" unicode="&#xc6;" horiz-adv-x="1835" 
d="M969 797v465l-277 -465h277zM1743 1397v-178h-574v-422h555v-179h-555v-438h596v-178h-796v616h-381l-365 -616h-219l827 1395h912z" />
    <glyph glyph-name="Ccedilla" unicode="&#xc7;" horiz-adv-x="1450" 
d="M841 -33q115 -29 115 -149q0 -62 -61 -115t-195 -53q-37 0 -65 5v113q51 -4 86 -4t61 18t25 38q0 56 -96 56q-11 0 -23 -3l42 118q-159 18 -277 87q-164 95 -258.5 259.5t-94.5 356.5q0 305 217.5 513t536.5 208q220 0 489 -115v-215q-245 140 -482 140t-395.5 -151.5
t-158.5 -380.5t156.5 -377t404.5 -148t490 156v-220q-220 -120 -508 -120h-4z" />
    <glyph glyph-name="Egrave" unicode="&#xc8;" 
d="M154 1397h792v-178h-592v-426h572v-179h-572v-434h611v-178h-811v1395zM497 1800l138 -300h-112l-230 300h204z" />
    <glyph glyph-name="Eacute" unicode="&#xc9;" 
d="M154 1397h792v-178h-592v-426h572v-179h-572v-434h611v-178h-811v1395zM736 1800l-226 -300h-112l135 300h203z" />
    <glyph glyph-name="Ecircumflex" unicode="&#xca;" 
d="M154 1397h792v-178h-592v-426h572v-179h-572v-434h611v-178h-811v1395zM643 1809l193 -309h-112l-179 177l-171 -177h-108l187 309h190z" />
    <glyph glyph-name="Edieresis" unicode="&#xcb;" 
d="M154 1397h792v-178h-592v-426h572v-179h-572v-434h611v-178h-811v1395zM704 1706q38 0 66 -28t29 -68q0 -40 -27 -68q-26 -28 -66 -27t-68 29t-28 68t28 66q28 28 66 28zM318 1706q38 0 68 -28q28 -28 28 -68t-27 -68t-67 -27t-67 29q-28 28 -28 68q-1 40 27 66
q28 28 66 28z" />
    <glyph glyph-name="Igrave" unicode="&#xcc;" horiz-adv-x="512" 
d="M156 1397h200v-1397h-200v1397zM206 1800l138 -300h-112l-230 300h204z" />
    <glyph glyph-name="Iacute" unicode="&#xcd;" horiz-adv-x="512" 
d="M156 1397h200v-1397h-200v1397zM533 1800l-226 -300h-112l135 300h203z" />
    <glyph glyph-name="Icircumflex" unicode="&#xce;" horiz-adv-x="512" 
d="M156 1397h200v-1397h-200v1397zM361 1809l193 -309h-112l-179 177l-171 -177h-108l187 309h190z" />
    <glyph glyph-name="Idieresis" unicode="&#xcf;" horiz-adv-x="512" 
d="M156 1397h200v-1397h-200v1397zM456 1706q38 0 66 -28t29 -68q0 -40 -27 -68q-26 -28 -66 -27t-68 29t-28 68t28 66q28 28 66 28zM70 1706q38 0 68 -28q28 -28 28 -68t-27 -68t-67 -27t-67 29q-28 28 -28 68q-1 40 27 66q28 28 66 28z" />
    <glyph glyph-name="Eth" unicode="&#xd0;" horiz-adv-x="1536" 
d="M752 633h-396v-453h256q244 0 335.5 52t137.5 98q148 150 148 377t-152 369q-112 106 -221.5 124.5t-253.5 18.5h-250v-455h396v-131zM156 2v631h-162v131h162v633h471q285 0 451 -85.5t264 -251.5t98 -362q0 -140 -54 -268t-155 -226t-236 -150q-79 -31 -145 -41.5
t-252 -10.5h-442z" />
    <glyph glyph-name="Ntilde" unicode="&#xd1;" horiz-adv-x="1599" 
d="M1264 1397h190v-1397h-172l-934 1075v-1075h-188v1397h162l942 -1084v1084zM974 1691q61 0 74 86h78q-2 -121 -50 -181t-107 -61q-59 0 -152 40t-129 40q-70 0 -79 -80h-84q16 141 58 189t103 47q61 0 160 -40t128 -40z" />
    <glyph glyph-name="Ograve" unicode="&#xd2;" horiz-adv-x="1686" 
d="M842 1227q-234 0 -388 -150q-154 -149 -155 -379q0 -230 155 -380q154 -150 388 -150t390 153t157 378q-1 225 -157 377t-390 151zM840 1417q324 0 540 -205t215 -514q1 -310 -217 -512t-542 -202t-534 202t-210 512q0 309 212 514t536 205zM808 1800l138 -300h-112
l-230 300h204z" />
    <glyph glyph-name="Oacute" unicode="&#xd3;" horiz-adv-x="1686" 
d="M842 1227q-234 0 -388 -150q-154 -149 -155 -379q0 -230 155 -380q154 -150 388 -150t390 153t157 378q-1 225 -157 377t-390 151zM840 1417q324 0 540 -205t215 -514q1 -310 -217 -512t-542 -202t-534 202t-210 512q0 309 212 514t536 205zM1043 1800l-226 -300h-112
l135 300h203z" />
    <glyph glyph-name="Ocircumflex" unicode="&#xd4;" horiz-adv-x="1686" 
d="M842 1227q-234 0 -388 -150q-154 -149 -155 -379q0 -230 155 -380q154 -150 388 -150t390 153t157 378q-1 225 -157 377t-390 151zM840 1417q324 0 540 -205t215 -514q1 -310 -217 -512t-542 -202t-534 202t-210 512q0 309 212 514t536 205zM902 1809l193 -309h-112
l-179 177l-171 -177h-108l187 309h190z" />
    <glyph glyph-name="Otilde" unicode="&#xd5;" horiz-adv-x="1686" 
d="M842 1227q-234 0 -388 -150q-154 -149 -155 -379q0 -230 155 -380q154 -150 388 -150t390 153t157 378q-1 225 -157 377t-390 151zM840 1417q324 0 540 -205t215 -514q1 -310 -217 -512t-542 -202t-534 202t-210 512q0 309 212 514t536 205zM996 1691q61 0 74 86h78
q-2 -121 -50 -181t-107 -61q-59 0 -152 40t-129 40q-70 0 -79 -80h-84q16 141 58 189t103 47q61 0 160 -40t128 -40z" />
    <glyph glyph-name="Odieresis" unicode="&#xd6;" horiz-adv-x="1686" 
d="M842 1227q-234 0 -388 -150q-154 -149 -155 -379q0 -230 155 -380q154 -150 388 -150t390 153t157 378q-1 225 -157 377t-390 151zM840 1417q324 0 540 -205t215 -514q1 -310 -217 -512t-542 -202t-534 202t-210 512q0 309 212 514t536 205zM1022 1706q38 0 68 -28
q28 -28 28 -68t-27 -68t-67 -27t-67 29q-28 28 -28 68q-1 40 27 66q28 28 66 28zM638 1706q38 0 66 -28t29 -68q0 -40 -27 -68q-26 -28 -66 -27t-68 29t-28 68t28 66q28 28 66 28z" />
    <glyph glyph-name="multiply" unicode="&#xd7;" horiz-adv-x="1196" 
d="M161 410l315 315l-315 313l122 122l314 -314l314 314l121 -122l-313 -313l313 -315l-121 -121l-314 314l-314 -314z" />
    <glyph glyph-name="Oslash" unicode="&#xd8;" horiz-adv-x="1686" 
d="M846 1231q-235 0 -390 -151t-155 -371t141 -381l703 821q-141 82 -299 82zM842 170q236 0 390 151.5t154 383.5q0 103 -39 200t-108 166l-700 -819q144 -82 303 -82zM1593 702q0 -309 -213.5 -512.5t-537.5 -203.5q-263 0 -432 114l-101 -118l-96 77l96 119
q-102 93 -158.5 228.5t-56.5 285.5q0 314 212.5 518.5t537.5 204.5q228 0 432 -117l98 121l94 -82l-94 -114q104 -95 161.5 -232t57.5 -289z" />
    <glyph glyph-name="Ugrave" unicode="&#xd9;" horiz-adv-x="1450" 
d="M1126 1397h201v-793q1 -161 -23 -243q-42 -148 -143 -234q-167 -143 -437 -143t-435 142q-101 89 -141 232q-22 79 -23 248v791h201v-793q0 -197 45 -274q45 -78 137 -124t217 -46q178 0 290 93q59 50 85 118t26 233v793zM667 1800l138 -300h-112l-230 300h204z" />
    <glyph glyph-name="Uacute" unicode="&#xda;" horiz-adv-x="1450" 
d="M1126 1397h201v-793q1 -161 -23 -243q-42 -148 -143 -234q-167 -143 -437 -143t-435 142q-101 89 -141 232q-22 79 -23 248v791h201v-793q0 -197 45 -274q45 -78 137 -124t217 -46q178 0 290 93q59 50 85 118t26 233v793zM962 1800l-226 -300h-112l135 300h203z" />
    <glyph glyph-name="Ucircumflex" unicode="&#xdb;" horiz-adv-x="1450" 
d="M1126 1397h201v-793q1 -161 -23 -243q-42 -148 -143 -234q-167 -143 -437 -143t-435 142q-101 89 -141 232q-22 79 -23 248v791h201v-793q0 -197 45 -274q45 -78 137 -124t217 -46q178 0 290 93q59 50 85 118t26 233v793zM809 1809l193 -309h-112l-179 177l-171 -177
h-108l187 309h190z" />
    <glyph glyph-name="Udieresis" unicode="&#xdc;" horiz-adv-x="1450" 
d="M1126 1397h201v-793q1 -161 -23 -243q-42 -148 -143 -234q-167 -143 -437 -143t-435 142q-101 89 -141 232q-22 79 -23 248v791h201v-793q0 -197 45 -274q45 -78 137 -124t217 -46q178 0 290 93q59 50 85 118t26 233v793zM918 1706q38 0 68 -28q28 -28 28 -68t-27 -68
t-67 -27t-67 29q-28 28 -28 68q-1 40 27 66q28 28 66 28zM534 1706q38 0 66 -28t29 -68q0 -40 -27 -68q-26 -28 -66 -27t-68 29t-28 68t28 66q28 28 66 28z" />
    <glyph glyph-name="Yacute" unicode="&#xdd;" horiz-adv-x="1237" 
d="M721 0h-205v739l-516 658h242l374 -482l379 482h242l-516 -658v-739zM842 1800l-226 -300h-112l135 300h203z" />
    <glyph glyph-name="Thorn" unicode="&#xde;" horiz-adv-x="1044" 
d="M551 917h-207v-436h219q122 0 188 57.5t66 163.5q0 215 -266 215zM143 0v1397h201v-301h242q201 0 319.5 -109t118.5 -287t-120 -288q-66 -60 -159 -84.5t-253 -24.5h-148v-303h-201z" />
    <glyph glyph-name="germandbls" unicode="&#xdf;" 
d="M473 846h27q103 0 160 56t57 154t-59.5 158t-158.5 60t-147.5 -65t-48.5 -208v-1001h-182v999q0 278 128.5 347t260.5 69q180 0 283.5 -89.5t103.5 -244.5q0 -107 -53 -189t-148 -122q124 -32 192 -128.5t68 -260.5t-100 -279.5t-258 -115.5q-76 0 -141 14v178
q50 -22 100 -22q98 0 156.5 70t58.5 168t-29.5 157t-87 92.5t-182.5 36.5v166z" />
    <glyph glyph-name="agrave" unicode="&#xe0;" horiz-adv-x="874" 
d="M236 240q0 -56 36 -93q36 -36 110 -36q72 0 146 71v273l-122 -47q-94 -36 -132 -74t-38 -94zM707 553v-391q1 -47 33 -47t102 49v-111q-62 -41 -100 -55t-78 -14q-117 0 -138 92q-116 -90 -230 -90t-177 64q-64 64 -64 154q1 92 63 160t177 109l233 80v49q0 166 -166 166
q-149 0 -290 -154v199q106 125 310 125t288 -144q24 -42 30 -84t7 -157zM423 1420l138 -300h-112l-230 300h204z" />
    <glyph glyph-name="aacute" unicode="&#xe1;" horiz-adv-x="874" 
d="M236 240q0 -56 36 -93q36 -36 110 -36q72 0 146 71v273l-122 -47q-94 -36 -132 -74t-38 -94zM707 553v-391q1 -47 33 -47t102 49v-111q-62 -41 -100 -55t-78 -14q-117 0 -138 92q-116 -90 -230 -90t-177 64q-64 64 -64 154q1 92 63 160t177 109l233 80v49q0 166 -166 166
q-149 0 -290 -154v199q106 125 310 125t288 -144q24 -42 30 -84t7 -157zM662 1419l-226 -300h-112l135 300h203z" />
    <glyph glyph-name="acircumflex" unicode="&#xe2;" horiz-adv-x="874" 
d="M236 240q0 -56 36 -93q36 -36 110 -36q72 0 146 71v273l-122 -47q-94 -36 -132 -74t-38 -94zM707 553v-391q1 -47 33 -47t102 49v-111q-62 -41 -100 -55t-78 -14q-117 0 -138 92q-116 -90 -230 -90t-177 64q-64 64 -64 154q1 92 63 160t177 109l233 80v49q0 166 -166 166
q-149 0 -290 -154v199q106 125 310 125t288 -144q24 -42 30 -84t7 -157zM529 1427l193 -309h-112l-179 177l-171 -177h-108l187 309h190z" />
    <glyph glyph-name="atilde" unicode="&#xe3;" horiz-adv-x="874" 
d="M236 240q0 -56 36 -93q36 -36 110 -36q72 0 146 71v273l-122 -47q-94 -36 -132 -74t-38 -94zM707 553v-391q1 -47 33 -47t102 49v-111q-62 -41 -100 -55t-78 -14q-117 0 -138 92q-116 -90 -230 -90t-177 64q-64 64 -64 154q1 92 63 160t177 109l233 80v49q0 166 -166 166
q-149 0 -290 -154v199q106 125 310 125t288 -144q24 -42 30 -84t7 -157zM586 1311q61 0 74 86h78q-2 -121 -50 -181t-107 -61q-59 0 -152 40t-129 40q-70 0 -79 -80h-84q16 141 58 189t103 47q61 0 160 -40t128 -40z" />
    <glyph glyph-name="adieresis" unicode="&#xe4;" horiz-adv-x="874" 
d="M236 240q0 -56 36 -93q36 -36 110 -36q72 0 146 71v273l-122 -47q-94 -36 -132 -74t-38 -94zM707 553v-391q1 -47 33 -47t102 49v-111q-62 -41 -100 -55t-78 -14q-117 0 -138 92q-116 -90 -230 -90t-177 64q-64 64 -64 154q1 92 63 160t177 109l233 80v49q0 166 -166 166
q-149 0 -290 -154v199q106 125 310 125t288 -144q24 -42 30 -84t7 -157zM630 1366q38 0 66 -28t29 -68q0 -40 -27 -68q-26 -28 -66 -27t-68 29t-28 68t28 66q28 28 66 28zM244 1366q38 0 68 -28q28 -28 28 -68t-27 -68t-67 -27t-67 29q-28 28 -28 68q-1 40 27 66
q28 28 66 28z" />
    <glyph glyph-name="aring" unicode="&#xe5;" horiz-adv-x="874" 
d="M236 240q0 -56 36 -93q36 -36 110 -36q72 0 146 71v273l-122 -47q-94 -36 -132 -74t-38 -94zM707 553v-391q1 -47 33 -47t102 49v-111q-62 -41 -100 -55t-78 -14q-117 0 -138 92q-116 -90 -230 -90t-177 64q-64 64 -64 154q1 92 63 160t177 109l233 80v49q0 166 -166 166
q-149 0 -290 -154v199q106 125 310 125t288 -144q24 -42 30 -84t7 -157zM434 1416q-52 0 -82 -30t-30 -80q0 -48 34 -82t81 -33q48 0 82 33t34 80q0 48 -34 80t-85 32zM438 1497q78 0 134 -55t55 -134q1 -79 -55 -135t-134 -56q-78 -1 -134 55t-56 135t56 135t134 55z" />
    <glyph glyph-name="ae" unicode="&#xe6;" horiz-adv-x="1366" 
d="M252 248q0 -56 38 -97.5t84 -41.5t75 10.5t88 42.5v297l-99 -39q-100 -39 -143 -77.5t-43 -94.5zM930 780q-137 0 -189 -164h363q-11 78 -56.5 121t-117.5 43zM936 938q158 0 254 -112.5t96 -297.5v-28h-567q9 -237 107.5 -295t179.5 -58q131 0 280 111v-178
q-83 -55 -149.5 -75.5t-162.5 -20.5t-182.5 39.5t-127.5 101.5q-179 -141 -345 -141q-110 0 -178.5 65t-68.5 155t47 151t144.5 103.5t146.5 53.5l127 39v29q0 103 -34.5 145.5t-117.5 42.5q-157 0 -293 -152v220q77 56 144 79t151 23q181 0 277 -119q76 65 137.5 92
t134.5 27z" />
    <glyph glyph-name="ccedilla" unicode="&#xe7;" horiz-adv-x="897" 
d="M533 -33q115 -29 115 -149q0 -62 -61 -115t-195 -53q-37 0 -65 5v113q51 -4 86 -4t61 18t25 38q0 56 -96 56q-11 0 -23 -3l44 123q-130 29 -238 136.5t-108 323.5t125 349t329 133q71 0 127.5 -13.5t139.5 -50.5v-194q-139 88 -259 88t-199 -86t-79 -224t85.5 -221
t230.5 -83q105 0 241 61v-180q-137 -51 -268 -51h-13z" />
    <glyph glyph-name="egrave" unicode="&#xe8;" horiz-adv-x="981" 
d="M512 780q-98 0 -160 -59t-82 -168h463q-7 109 -65 168t-156 59zM913 444h-647q6 -132 88 -210t211 -78q180 0 332 112v-178q-85 -56 -167 -80t-214 -24t-225 63q-95 63 -151 169t-56 247q0 209 119 341t305 132t296 -128q109 -128 109 -343v-23zM477 1419l138 -300h-112
l-230 300h204z" />
    <glyph glyph-name="eacute" unicode="&#xe9;" horiz-adv-x="981" 
d="M512 780q-98 0 -160 -59t-82 -168h463q-7 109 -65 168t-156 59zM913 444h-647q6 -132 88 -210t211 -78q180 0 332 112v-178q-85 -56 -167 -80t-214 -24t-225 63q-95 63 -151 169t-56 247q0 209 119 341t305 132t296 -128q109 -128 109 -343v-23zM716 1419l-226 -300h-112
l135 300h203z" />
    <glyph glyph-name="ecircumflex" unicode="&#xea;" horiz-adv-x="981" 
d="M512 780q-98 0 -160 -59t-82 -168h463q-7 109 -65 168t-156 59zM913 444h-647q6 -132 88 -210t211 -78q180 0 332 112v-178q-85 -56 -167 -80t-214 -24t-225 63q-95 63 -151 169t-56 247q0 209 119 341t305 132t296 -128q109 -128 109 -343v-23zM582 1427l193 -309h-112
l-179 177l-171 -177h-108l187 309h190z" />
    <glyph glyph-name="edieresis" unicode="&#xeb;" horiz-adv-x="981" 
d="M512 780q-98 0 -160 -59t-82 -168h463q-7 109 -65 168t-156 59zM913 444h-647q6 -132 88 -210t211 -78q180 0 332 112v-178q-85 -56 -167 -80t-214 -24t-225 63q-95 63 -151 169t-56 247q0 209 119 341t305 132t296 -128q109 -128 109 -343v-23zM682 1366q38 0 68 -28
q28 -28 28 -68t-27 -68t-67 -27t-67 29q-28 28 -28 68q-1 40 27 66q28 28 66 28zM298 1366q38 0 66 -28t29 -68q0 -40 -27 -68q-26 -28 -66 -27t-68 29t-28 68t28 66q28 28 66 28z" />
    <glyph glyph-name="igrave" unicode="&#xec;" horiz-adv-x="449" 
d="M133 920h182v-920h-182v920zM167 1419l138 -300h-112l-230 300h204z" />
    <glyph glyph-name="iacute" unicode="&#xed;" horiz-adv-x="449" 
d="M133 920h182v-920h-182v920zM522 1419l-226 -300h-112l135 300h203z" />
    <glyph glyph-name="icircumflex" unicode="&#xee;" horiz-adv-x="449" 
d="M133 920h182v-920h-182v920zM332 1427l193 -309h-112l-179 177l-171 -177h-108l187 309h190z" />
    <glyph glyph-name="idieresis" unicode="&#xef;" horiz-adv-x="449" 
d="M133 920h182v-920h-182v920zM416 1366q38 0 68 -28q28 -28 28 -68t-27 -68t-67 -27t-67 29q-28 28 -28 68q-1 40 27 66q28 28 66 28zM32 1366q38 0 66 -28t29 -68q0 -40 -27 -68q-26 -28 -66 -27t-68 29t-28 68t28 66q28 28 66 28z" />
    <glyph glyph-name="eth" unicode="&#xf0;" horiz-adv-x="1153" 
d="M897 460q0 140 -88.5 227t-226.5 87t-231 -93t-93 -227t92 -220.5t234 -86.5t227.5 86.5t85.5 226.5zM584 -16q-222 0 -362 135t-140 339t143 342t359 138q64 0 105.5 -9t107.5 -38q-61 103 -99 145.5t-129 112.5l-295 -137l-47 112l215 101q-85 42 -172 61l97 127
q90 -28 132.5 -45.5t118.5 -58.5l224 104l49 -110l-154 -76q115 -98 227.5 -258t112.5 -428t-135.5 -412.5t-357.5 -144.5z" />
    <glyph glyph-name="ntilde" unicode="&#xf1;" 
d="M311 920v-117q122 135 277 135q86 0 160 -44t112 -122t39 -246v-526h-182v524q0 142 -43 202t-144 60q-129 0 -219 -129v-657h-186v920h186zM660 1311q61 0 74 86h78q-2 -121 -50 -181t-107 -61q-59 0 -152 40t-129 40q-70 0 -79 -80h-84q16 141 58 189t103 47
q61 0 160 -40t128 -40z" />
    <glyph glyph-name="ograve" unicode="&#xf2;" horiz-adv-x="1130" 
d="M561 758q-133 0 -217 -86t-84 -218t86 -216t220 -84t220 84t86 216t-89 218t-222 86zM568 922q211 0 350 -136t139 -337t-141 -333q-142 -132 -352 -132t-349 134t-139 334q0 202 140 336t352 134zM489 1419l138 -300h-112l-230 300h204z" />
    <glyph glyph-name="oacute" unicode="&#xf3;" horiz-adv-x="1130" 
d="M561 758q-133 0 -217 -86t-84 -218t86 -216t220 -84t220 84t86 216t-89 218t-222 86zM568 922q211 0 350 -136t139 -337t-141 -333q-142 -132 -352 -132t-349 134t-139 334q0 202 140 336t352 134zM771 1419l-226 -300h-112l135 300h203z" />
    <glyph glyph-name="ocircumflex" unicode="&#xf4;" horiz-adv-x="1130" 
d="M561 758q-133 0 -217 -86t-84 -218t86 -216t220 -84t220 84t86 216t-89 218t-222 86zM568 922q211 0 350 -136t139 -337t-141 -333q-142 -132 -352 -132t-349 134t-139 334q0 202 140 336t352 134zM641 1427l193 -309h-112l-179 177l-171 -177h-108l187 309h190z" />
    <glyph glyph-name="otilde" unicode="&#xf5;" horiz-adv-x="1130" 
d="M561 758q-133 0 -217 -86t-84 -218t86 -216t220 -84t220 84t86 216t-89 218t-222 86zM568 922q211 0 350 -136t139 -337t-141 -333q-142 -132 -352 -132t-349 134t-139 334q0 202 140 336t352 134zM736 1311q61 0 74 86h78q-2 -121 -50 -181t-107 -61q-59 0 -152 40
t-129 40q-70 0 -79 -80h-84q16 141 58 189t103 47q61 0 160 -40t128 -40z" />
    <glyph glyph-name="odieresis" unicode="&#xf6;" horiz-adv-x="1130" 
d="M561 758q-133 0 -217 -86t-84 -218t86 -216t220 -84t220 84t86 216t-89 218t-222 86zM568 922q211 0 350 -136t139 -337t-141 -333q-142 -132 -352 -132t-349 134t-139 334q0 202 140 336t352 134zM730 1366q38 0 66 -28t29 -68q0 -40 -27 -68q-26 -28 -66 -27t-68 29
t-28 68t28 66q28 28 66 28zM344 1366q38 0 68 -28q28 -28 28 -68t-27 -68t-67 -27t-67 29q-28 28 -28 68q-1 40 27 66q28 28 66 28z" />
    <glyph glyph-name="divide" unicode="&#xf7;" horiz-adv-x="1196" 
d="M604 529q46 0 77.5 -32t31.5 -77t-31.5 -77t-76.5 -32t-77 32t-32 77t31 77t77 32zM1082 639h-968v168h968v-168zM604 1131q46 0 77 -31.5t31 -76.5t-31.5 -77t-76.5 -32t-77 32t-32 77t31.5 76.5t77.5 31.5z" />
    <glyph glyph-name="oslash" unicode="&#xf8;" horiz-adv-x="1130" 
d="M565 774q-135 0 -226 -92t-91 -219t78 -215l407 477q-83 49 -168 49zM563 141q135 0 227.5 91.5t92.5 224.5q0 64 -17 110t-61 103l-410 -480q72 -49 168 -49zM1059 448q0 -198 -142.5 -331t-363.5 -133q-146 0 -270 73l-115 -131l-68 62l111 127q-139 141 -139 345
t140.5 341t352.5 137q154 0 283 -82l94 113l68 -62l-90 -106q139 -155 139 -353z" />
    <glyph glyph-name="ugrave" unicode="&#xf9;" 
d="M715 117q-121 -133 -287 -133q-80 0 -154 44t-112 118t-37 247v527h182v-525q-1 -145 41 -203t146 -57q130 0 221 127v658h182v-920h-182v117zM497 1419l138 -300h-112l-230 300h204z" />
    <glyph glyph-name="uacute" unicode="&#xfa;" 
d="M715 117q-121 -133 -287 -133q-80 0 -154 44t-112 118t-37 247v527h182v-525q-1 -145 41 -203t146 -57q130 0 221 127v658h182v-920h-182v117zM736 1419l-226 -300h-112l135 300h203z" />
    <glyph glyph-name="ucircumflex" unicode="&#xfb;" 
d="M715 117q-121 -133 -287 -133q-80 0 -154 44t-112 118t-37 247v527h182v-525q-1 -145 41 -203t146 -57q130 0 221 127v658h182v-920h-182v117zM603 1427l193 -309h-112l-179 177l-171 -177h-108l187 309h190z" />
    <glyph glyph-name="udieresis" unicode="&#xfc;" 
d="M715 117q-121 -133 -287 -133q-80 0 -154 44t-112 118t-37 247v527h182v-525q-1 -145 41 -203t146 -57q130 0 221 127v658h182v-920h-182v117zM704 1366q38 0 66 -28t29 -68q0 -40 -27 -68q-26 -28 -66 -27t-68 29t-28 68t28 66q28 28 66 28zM318 1366q38 0 68 -28
q28 -28 28 -68t-27 -68t-67 -27t-67 29q-28 28 -28 68q-1 40 27 66q28 28 66 28z" />
    <glyph glyph-name="yacute" unicode="&#xfd;" horiz-adv-x="897" 
d="M692 920h205l-651 -1389h-203l313 666l-356 723h207l248 -519zM672 1419l-226 -300h-112l135 300h203z" />
    <glyph glyph-name="thorn" unicode="&#xfe;" 
d="M432 750h-129v-566q84 -43 176 -43q128 0 209.5 89t81.5 229q0 90 -38.5 159t-105 100.5t-194.5 31.5zM117 -469v1866h186v-477h133q245 0 381.5 -122t136.5 -335t-128.5 -346t-327.5 -133q-88 0 -195 39v-492h-186z" />
    <glyph glyph-name="ydieresis" unicode="&#xff;" horiz-adv-x="897" 
d="M692 920h205l-651 -1389h-203l313 666l-356 723h207l248 -519zM640 1366q38 0 66 -28t29 -68q0 -40 -27 -68q-26 -28 -66 -27t-68 29t-28 68t28 66q28 28 66 28zM254 1366q38 0 68 -28q28 -28 28 -68t-27 -68t-67 -27t-67 29q-28 28 -28 68q-1 40 27 66q28 28 66 28z" />
    <glyph glyph-name="Abreve" unicode="&#x102;" horiz-adv-x="1366" 
d="M893 592l-225 506l-209 -506h434zM600 1405h141l625 -1405h-205l-186 414h-594l-176 -414h-205zM684 1500q-113 0 -191 68t-101 196h137q31 -127 153 -127q121 0 151 127h139q-24 -132 -100 -198t-188 -66z" />
    <glyph glyph-name="abreve" unicode="&#x103;" horiz-adv-x="874" 
d="M236 240q0 -56 36 -93q36 -36 110 -36q72 0 146 71v273l-122 -47q-94 -36 -132 -74t-38 -94zM707 553v-391q1 -47 33 -47t102 49v-111q-62 -41 -100 -55t-78 -14q-117 0 -138 92q-116 -90 -230 -90t-177 64q-64 64 -64 154q1 92 63 160t177 109l233 80v49q0 166 -166 166
q-149 0 -290 -154v199q106 125 310 125t288 -144q24 -42 30 -84t7 -157zM383 1270q121 0 151 127h139q-23 -132 -99 -198t-189 -66q-113 1 -191 69t-101 195h137q32 -127 153 -127z" />
    <glyph glyph-name="Aogonek" unicode="&#x104;" horiz-adv-x="1366" 
d="M668 1098l-209 -506h434zM1287 -365q-83 0 -141.5 54.5t-58.5 140.5t74 170l-186 412h-594l-176 -412h-205l600 1405h141l625 -1405h-66q-57 -78 -57 -121t30.5 -70.5t60.5 -27.5t110 22v-137q-74 -31 -157 -31z" />
    <glyph glyph-name="aogonek" unicode="&#x105;" horiz-adv-x="874" 
d="M238 232q0 -48 37.5 -84.5t93.5 -36.5q86 0 159 73v271q-158 -61 -197.5 -82.5t-66 -57t-26.5 -83.5zM672 -115q0 -49 26.5 -76.5t65.5 -27.5t106 22v-137q-68 -31 -152 -31t-144 54.5t-60 140.5t72 168q-45 25 -58 78q-122 -94 -232 -94t-175.5 67t-65.5 153t43.5 142
t116.5 91t313 118v51q0 162 -163 162q-150 0 -291 -152v199q106 125 308 125t264.5 -103.5t62.5 -281.5v-391q1 -47 31 -47t102 49v-111q-35 -24 -123 -65q-47 -54 -47 -103z" />
    <glyph glyph-name="Cacute" unicode="&#x106;" horiz-adv-x="1450" 
d="M877 -16q-261 0 -424 94t-258 259t-95 357q0 305 218 513t536 208q220 0 489 -115v-215q-245 140 -482 140q-237 1 -395 -151t-159 -381q0 -229 156 -377q157 -148 405 -148t490 156v-220q-220 -120 -481 -120zM1054 1800l-226 -300h-112l135 300h203z" />
    <glyph glyph-name="cacute" unicode="&#x107;" horiz-adv-x="897" 
d="M551 -16q-217 0 -345 128t-128 344t125 349t329 133q72 0 128 -14t139 -50v-194q-139 88 -259 88t-199 -86t-79 -224t86 -221t230 -83q105 0 241 61v-180q-137 -51 -268 -51zM726 1419l-226 -300h-112l135 300h203z" />
    <glyph glyph-name="Ccaron" unicode="&#x10c;" horiz-adv-x="1450" 
d="M877 -16q-261 0 -424 94t-258 259t-95 357q0 305 218 513t536 208q220 0 489 -115v-215q-245 140 -482 140q-237 1 -395 -151t-159 -381q0 -229 156 -377q157 -148 405 -148t490 156v-220q-220 -120 -481 -120zM1174 1809l-227 -309h-189l-224 309h114l206 -173l206 173
h114z" />
    <glyph glyph-name="ccaron" unicode="&#x10d;" horiz-adv-x="897" 
d="M551 -16q-217 0 -345 128t-128 344t125 349t329 133q72 0 128 -14t139 -50v-194q-139 88 -259 88t-199 -86t-79 -224t86 -221t230 -83q105 0 241 61v-180q-137 -51 -268 -51zM839 1427l-227 -309h-189l-224 309h114l206 -173l206 173h114z" />
    <glyph glyph-name="Dcaron" unicode="&#x10e;" horiz-adv-x="1536" 
d="M606 1219h-250v-1039h256q244 0 372 72q56 32 101 78q148 150 148 377t-152 369q-112 106 -266 132q-65 11 -209 11zM156 2v1395h471q285 1 451 -85t264 -252t98 -362q0 -140 -54 -268t-155 -226t-236 -150q-79 -32 -145 -42t-252 -10h-442zM1012 1809l-227 -309h-189
l-224 309h114l206 -173l206 173h114z" />
    <glyph glyph-name="dcaron" unicode="&#x10f;" horiz-adv-x="1216" 
d="M743 156v583q-85 43 -172 43q-137 0 -217 -89t-80 -235t70 -224q42 -46 89 -62t169 -16h141zM743 1397h183v-1397h-389q-203 0 -325 129t-122 339t128 341t325 131q92 0 200 -39v496zM1025 1277q0 53 36 93t94 40t95 -58t37 -147t-62 -179t-179 -124v38q84 75 85 206
q-106 32 -106 131z" />
    <glyph glyph-name="Dslash" unicode="&#x110;" horiz-adv-x="1536" 
d="M355 633v-452h258q243 0 364 66.5t188.5 191.5t67.5 263t-56.5 247t-154 174t-187 80.5t-229.5 15.5h-251v-455h396v-131h-396zM155 633h-163v131h163v633h472q240 0 406.5 -64t286.5 -238t120 -396q0 -172 -75 -315t-200 -236.5t-254 -120.5t-314 -27h-442v633z" />
    <glyph glyph-name="dmacron" unicode="&#x111;" horiz-adv-x="1045" 
d="M570 783q-130 0 -213 -87.5t-83 -221.5t44.5 -205.5t103.5 -93t180 -21.5h139v586q-79 43 -171 43zM926 1208h159v-106h-159v-1102h-390q-217 0 -331.5 137t-114.5 341t131.5 332t320.5 128q97 0 199 -36v200h-220v106h220v189h185v-189z" />
    <glyph glyph-name="Eogonek" unicode="&#x118;" 
d="M808 -365q-83 0 -141.5 54.5t-58.5 140.5t74 170h-528v1397h792v-180h-592v-422h572v-181h-572v-434h611v-180h-144q-57 -78 -57 -121t30.5 -70.5t59.5 -27.5t111 22v-137q-74 -31 -157 -31z" />
    <glyph glyph-name="eogonek" unicode="&#x119;" horiz-adv-x="981" 
d="M512 780q-205 0 -244 -227h463q-14 227 -219 227zM737 -365q-84 0 -144.5 54.5t-60.5 134.5t60 160q-6 0 -27 -2h-28q-202 0 -328.5 136t-126.5 348t120 342t305 130t294.5 -128.5t109.5 -342.5v-23h-647q8 -128 90 -208t209 -80q182 0 332 112v-178q-37 -24 -135 -72
q-72 -86 -72 -135t30 -75.5t76 -26.5t95 22v-137q-68 -31 -152 -31z" />
    <glyph glyph-name="Ecaron" unicode="&#x11a;" 
d="M154 1397h792v-178h-592v-426h572v-179h-572v-434h611v-178h-811v1395zM880 1809l-227 -309h-189l-224 309h114l206 -173l206 173h114z" />
    <glyph glyph-name="ecaron" unicode="&#x11b;" horiz-adv-x="981" 
d="M512 780q-98 0 -160 -59t-82 -168h463q-7 109 -65 168t-156 59zM913 444h-647q6 -132 88 -210t211 -78q180 0 332 112v-178q-85 -56 -167 -80t-214 -24t-225 63q-95 63 -151 169t-56 247q0 209 119 341t305 132t296 -128q109 -128 109 -343v-23zM840 1427l-227 -309h-189
l-224 309h114l206 -173l206 173h114z" />
    <glyph glyph-name="dotlessi" unicode="&#x131;" horiz-adv-x="449" 
d="M133 920h182v-920h-182v920z" />
    <glyph glyph-name="Lacute" unicode="&#x139;" horiz-adv-x="1004" 
d="M154 1397h200v-1215h629v-182h-829v1397zM807 1800l-226 -300h-112l135 300h203z" />
    <glyph glyph-name="lacute" unicode="&#x13a;" horiz-adv-x="449" 
d="M133 1397h182v-1397h-182v1397zM449 1800l-226 -300h-112l135 300h203z" />
    <glyph glyph-name="Lcaron" unicode="&#x13d;" horiz-adv-x="1004" 
d="M154 1397h200v-1215h629v-182h-829v1397zM902 1809l-227 -309h-189l-224 309h114l206 -173l206 173h114z" />
    <glyph glyph-name="lcaron" unicode="&#x13e;" horiz-adv-x="597" 
d="M133 1397h182v-1397h-182v1397zM409 1277q0 53 36 93t94 40t95 -58t37 -147t-62 -179t-179 -124v38q84 75 85 206q-106 32 -106 131z" />
    <glyph glyph-name="Lslash" unicode="&#x141;" horiz-adv-x="1004" 
d="M152 1397h200v-533l283 232v-176l-283 -244v-488h631v-188h-831v512l-181 -145v186l181 149v695z" />
    <glyph glyph-name="lslash" unicode="&#x142;" horiz-adv-x="449" 
d="M135 1397h182v-539l164 129v-162l-164 -133v-692h-182v545l-160 -125v162l160 131v684z" />
    <glyph glyph-name="Nacute" unicode="&#x143;" horiz-adv-x="1599" 
d="M1264 1397h190v-1397h-172l-934 1075v-1075h-188v1397h162l942 -1084v1084zM1047 1800l-226 -300h-112l135 300h203z" />
    <glyph glyph-name="nacute" unicode="&#x144;" 
d="M311 920v-117q122 135 277 135q86 0 160 -44t112 -122t39 -246v-526h-182v524q0 142 -43 202t-144 60q-129 0 -219 -129v-657h-186v920h186zM737 1419l-226 -300h-112l135 300h203z" />
    <glyph glyph-name="Ncaron" unicode="&#x147;" horiz-adv-x="1599" 
d="M1264 1397h190v-1397h-172l-934 1075v-1075h-188v1397h162l942 -1084v1084zM1126 1809l-227 -309h-189l-224 309h114l206 -173l206 173h114z" />
    <glyph glyph-name="ncaron" unicode="&#x148;" 
d="M311 920v-117q122 135 277 135q86 0 160 -44t112 -122t39 -246v-526h-182v524q0 142 -43 202t-144 60q-129 0 -219 -129v-657h-186v920h186zM832 1427l-227 -309h-189l-224 309h114l206 -173l206 173h114z" />
    <glyph glyph-name="Odblacute" unicode="&#x150;" horiz-adv-x="1686" 
d="M842 1227q-234 0 -388 -150q-154 -149 -155 -379q0 -230 155 -380q154 -150 388 -150t390 153t157 378q-1 225 -157 377t-390 151zM840 1417q324 0 540 -205t215 -514q1 -310 -217 -512t-542 -202t-534 202t-210 512q0 309 212 514t536 205zM1272 1800l-237 -300h-113
l145 300h205zM945 1800l-239 -300h-111l143 300h207z" />
    <glyph glyph-name="odblacute" unicode="&#x151;" horiz-adv-x="1130" 
d="M561 758q-133 0 -217 -86t-84 -218t86 -216t220 -84t220 84t86 216t-89 218t-222 86zM568 922q211 0 350 -136t139 -337t-141 -333q-142 -132 -352 -132t-349 134t-139 334q0 202 140 336t352 134zM1007 1422l-237 -300h-113l145 300h205zM680 1422l-239 -300h-111
l143 300h207z" />
    <glyph glyph-name="OE" unicode="&#x152;" horiz-adv-x="1878" 
d="M881 174h139v1049h-78q-232 0 -362 -71t-201.5 -191t-71.5 -263q0 -224 164 -374t410 -150zM887 1397h905v-178h-571v-422h551v-179h-551v-438h594v-178h-861q-230 0 -373.5 47t-259.5 147q-225 194 -225 502t219 503.5t572 195.5z" />
    <glyph glyph-name="oe" unicode="&#x153;" horiz-adv-x="1706" 
d="M566 760q-131 0 -217.5 -87t-86.5 -217t87.5 -214t219.5 -84t215.5 84t83.5 216t-85.5 217t-216.5 85zM1272 780q-71 0 -122.5 -42.5t-74.5 -119.5h377q-35 162 -180 162zM1278 938q150 0 248 -105q49 -53 75.5 -126t32.5 -207h-577v-23q0 -163 80.5 -245t214.5 -82
t282 114v-184q-87 -54 -156.5 -74t-174.5 -20q-234 0 -342 178q-147 -180 -402 -180q-207 0 -347 136t-140 340t143 341t371 137t375 -190q55 91 138 140.5t179 49.5z" />
    <glyph glyph-name="Racute" unicode="&#x154;" horiz-adv-x="1237" 
d="M420 1227h-60v-441h76q152 0 208 26t88 78t32 120q0 66 -35 120t-99 75q-64 22 -210 22zM160 0v1397h350q212 0 336 -105t125 -284q0 -122 -61 -211t-175 -133q67 -44 131 -120t158 -230t139 -214l74 -100h-238l-61 92q-3 5 -12 17l-39 55l-129 211q-116 163 -206 211
q-42 22 -140 22h-52v-608h-200zM752 1800l-226 -300h-112l135 300h203z" />
    <glyph glyph-name="racute" unicode="&#x155;" horiz-adv-x="811" 
d="M324 920v-211l10 16q132 213 264 213q103 0 215 -104l-96 -160q-95 90 -179 90t-150 -84q-64 -84 -64 -199v-481h-183v920h183zM701 1419l-226 -300h-112l135 300h203z" />
    <glyph glyph-name="Rcaron" unicode="&#x158;" horiz-adv-x="1237" 
d="M420 1227h-60v-441h76q152 0 208 26t88 78t32 120q0 66 -35 120t-99 75q-64 22 -210 22zM160 0v1397h350q212 0 336 -105t125 -284q0 -122 -61 -211t-175 -133q67 -44 131 -120t158 -230t139 -214l74 -100h-238l-61 92q-3 5 -12 17l-39 55l-129 211q-116 163 -206 211
q-42 22 -140 22h-52v-608h-200zM876 1809l-227 -309h-189l-224 309h114l206 -173l206 173h114z" />
    <glyph glyph-name="rcaron" unicode="&#x159;" horiz-adv-x="811" 
d="M324 920v-211l10 16q132 213 264 213q103 0 215 -104l-96 -160q-95 90 -179 90t-150 -84q-64 -84 -64 -199v-481h-183v920h183zM797 1427l-227 -309h-189l-224 309h114l206 -173l206 173h114z" />
    <glyph glyph-name="Sacute" unicode="&#x15a;" horiz-adv-x="938" 
d="M84 1044q0 165 114 268t294 103q179 0 325 -98v-227q-151 145 -325 145q-98 1 -161 -45t-63 -113t46 -122t149 -115l153 -90q256 -152 256 -388q0 -168 -112 -273t-306 -105t-364 127v254q162 -205 375 -205q95 0 157 52t62 132q0 128 -184 242l-152 92q-144 88 -204 172
t-60 194zM719 1800l-226 -300h-112l135 300h203z" />
    <glyph glyph-name="sacute" unicode="&#x15b;" horiz-adv-x="788" 
d="M378 141q56 0 97 28q41 27 41 67t-26 66t-115 77q-177 97 -231 167t-54 164t82 161t216 67q132 0 274 -76v-180q-162 98 -265 98q-53 0 -85 -22t-33 -58q-1 -34 29 -63t104 -70l65 -37q230 -130 230 -288q-1 -114 -89 -186t-227 -72q-82 0 -146 18t-161 64v196
q78 -54 158 -88t136 -33zM620 1419l-226 -300h-112l135 300h203z" />
    <glyph glyph-name="Scommaaccent" unicode="&#x15e;" horiz-adv-x="938" 
d="M84 1044q0 165 114 268t294 103q179 0 325 -98v-227q-151 145 -325 145q-98 1 -161 -45t-63 -113t46 -122t149 -115l153 -90q256 -152 256 -388q0 -168 -112 -273t-306 -105t-364 127v254q162 -205 375 -205q95 0 157 52t62 132q0 128 -184 242l-152 92q-144 88 -204 172
t-60 194zM344 -203q0 53 36 93t94 40t95 -58t37 -147t-62 -179t-179 -124v38q84 75 85 206q-106 32 -106 131z" />
    <glyph glyph-name="scommaaccent" unicode="&#x15f;" horiz-adv-x="788" 
d="M378 141q56 0 97 28q41 27 41 67t-26 66t-115 77q-177 97 -231 167t-54 164t82 161t216 67q132 0 274 -76v-180q-162 98 -265 98q-53 0 -85 -22t-33 -58q-1 -34 29 -63t104 -70l65 -37q230 -130 230 -288q-1 -114 -89 -186t-227 -72q-82 0 -146 18t-161 64v196
q78 -54 158 -88t136 -33zM268 -203q0 53 36 93t94 40t95 -58t37 -147t-62 -179t-179 -124v38q84 75 85 206q-106 32 -106 131z" />
    <glyph glyph-name="Scaron" unicode="&#x160;" horiz-adv-x="938" 
d="M84 1044q0 165 114 268t294 103q179 0 325 -98v-227q-151 145 -325 145q-98 1 -161 -45t-63 -113t46 -122t149 -115l153 -90q256 -152 256 -388q0 -168 -112 -273t-306 -105t-364 127v254q162 -205 375 -205q95 0 157 52t62 132q0 128 -184 242l-152 92q-144 88 -204 172
t-60 194zM791 1809l-227 -309h-189l-224 309h114l206 -173l206 173h114z" />
    <glyph glyph-name="scaron" unicode="&#x161;" horiz-adv-x="788" 
d="M378 141q56 0 97 28q41 27 41 67t-26 66t-115 77q-177 97 -231 167t-54 164t82 161t216 67q132 0 274 -76v-180q-162 98 -265 98q-53 0 -85 -22t-33 -58q-1 -34 29 -63t104 -70l65 -37q230 -130 230 -288q-1 -114 -89 -186t-227 -72q-82 0 -146 18t-161 64v196
q78 -54 158 -88t136 -33zM715 1427l-227 -309h-189l-224 309h114l206 -173l206 173h114z" />
    <glyph glyph-name="Tcedilla" unicode="&#x162;" horiz-adv-x="1237" 
d="M35 1399h1167v-178h-487v-1221h-201v1221h-479v178zM502 -203q0 53 36 93t94 40t95 -58t37 -147t-62 -179t-179 -124v38q84 75 85 206q-106 32 -106 131z" />
    <glyph glyph-name="tcedilla" unicode="&#x163;" horiz-adv-x="682" 
d="M342 920h291v-164h-291v-451q0 -158 131 -158q98 0 207 66v-170q-106 -59 -230 -59t-207 73q-51 43 -67 105q-16 61 -16 186v408h-160v18l342 336v-190zM307 -203q0 53 36 93t94 40t95 -58t37 -147t-62 -179t-179 -124v38q84 75 85 206q-106 32 -106 131z" />
    <glyph glyph-name="Tcaron" unicode="&#x164;" horiz-adv-x="1237" 
d="M35 1399h1167v-178h-487v-1221h-201v1221h-479v178zM939 1809l-227 -309h-189l-224 309h114l206 -173l206 173h114z" />
    <glyph glyph-name="tcaron" unicode="&#x165;" horiz-adv-x="896" 
d="M342 920h291v-164h-291v-451q0 -158 131 -158q98 0 207 66v-170q-106 -59 -230 -59t-207 73q-51 43 -67 105q-16 61 -16 186v408h-160v18l342 336v-190zM701 1277q0 53 36 93t94 40t95 -58t37 -147t-62 -179t-179 -124v38q84 75 85 206q-106 32 -106 131z" />
    <glyph glyph-name="Uring" unicode="&#x16e;" horiz-adv-x="1450" 
d="M1126 1397h201v-793q1 -161 -23 -243q-42 -148 -143 -234q-167 -143 -437 -143t-435 142q-101 89 -141 232q-22 79 -23 248v791h201v-793q0 -197 45 -274q45 -78 137 -124t217 -46q178 0 290 93q59 50 85 118t26 233v793zM722 1799q-52 -1 -82 -31t-30 -78t34 -82t81 -34
q48 0 82 33t34 80t-34 79t-85 33zM726 1880q78 0 134 -55t55 -134q1 -79 -55 -135t-134 -56t-134 56t-56 134t56 134t134 56z" />
    <glyph glyph-name="uring" unicode="&#x16f;" 
d="M715 117q-121 -133 -287 -133q-80 0 -154 44t-112 118t-37 247v527h182v-525q-1 -145 41 -203t146 -57q130 0 221 127v658h182v-920h-182v117zM505 1416q-51 0 -81 -30t-31 -80q-1 -48 33 -82t82 -33q48 0 82 33t34 80q0 48 -34 80t-85 32zM510 1497q78 0 132 -55
q56 -55 56 -134t-56 -135t-134 -56q-78 -1 -134 55t-55 135t57 135t134 55z" />
    <glyph glyph-name="Udblacute" unicode="&#x170;" horiz-adv-x="1450" 
d="M1126 1397h201v-793q1 -161 -23 -243q-42 -148 -143 -234q-167 -143 -437 -143t-435 142q-101 89 -141 232q-22 79 -23 248v791h201v-793q0 -197 45 -274q45 -78 137 -124t217 -46q178 0 290 93q59 50 85 118t26 233v793zM1172 1800l-237 -300h-113l145 300h205z
M845 1800l-239 -300h-111l143 300h207z" />
    <glyph glyph-name="udblacute" unicode="&#x171;" 
d="M715 117q-121 -133 -287 -133q-80 0 -154 44t-112 118t-37 247v527h182v-525q-1 -145 41 -203t146 -57q130 0 221 127v658h182v-920h-182v117zM929 1422l-237 -300h-113l145 300h205zM602 1422l-239 -300h-111l143 300h207z" />
    <glyph glyph-name="Ydieresis" unicode="&#x178;" horiz-adv-x="1237" 
d="M721 0h-205v739l-516 658h242l374 -482l379 482h242l-516 -658v-739zM786 1706q38 0 66 -28t29 -68q0 -40 -27 -68q-26 -28 -66 -27t-68 29t-28 68t28 66q28 28 66 28zM400 1706q38 0 68 -28q28 -28 28 -68t-27 -68t-67 -27t-67 29q-28 28 -28 68q-1 40 27 66
q28 28 66 28z" />
    <glyph glyph-name="Zacute" unicode="&#x179;" horiz-adv-x="1323" 
d="M82 1399h1204l-893 -1221h893v-178h-1261l895 1221h-838v178zM895 1800l-226 -300h-112l135 300h203z" />
    <glyph glyph-name="zacute" unicode="&#x17a;" horiz-adv-x="854" 
d="M43 920h786l-487 -750h487v-170h-806l483 750h-463v170zM651 1419l-226 -300h-112l135 300h203z" />
    <glyph glyph-name="Zdot" unicode="&#x17b;" horiz-adv-x="1323" 
d="M82 1399h1204l-893 -1221h893v-178h-1261l895 1221h-838v178zM654 1739q51 0 87 -35q36 -36 36 -86q1 -50 -35 -84t-88 -34t-86 34q-35 34 -35 84t35 86q35 35 86 35z" />
    <glyph glyph-name="zdot" unicode="&#x17c;" horiz-adv-x="854" 
d="M43 920h786l-487 -750h487v-170h-806l483 750h-463v170zM450 1356q51 0 87 -35t36 -85q1 -50 -35 -85q-36 -34 -88 -34t-86 34q-35 35 -35 85t35 85t86 35z" />
    <glyph glyph-name="Zcaron" unicode="&#x17d;" horiz-adv-x="1323" 
d="M82 1399h1204l-893 -1221h893v-178h-1261l895 1221h-838v178zM981 1809l-227 -309h-189l-224 309h114l206 -173l206 173h114z" />
    <glyph glyph-name="zcaron" unicode="&#x17e;" horiz-adv-x="854" 
d="M43 920h786l-487 -750h487v-170h-806l483 750h-463v170zM748 1427l-227 -309h-189l-224 309h114l206 -173l206 173h114z" />
    <glyph glyph-name="florin" unicode="&#x192;" horiz-adv-x="1130" 
d="M277 -428q-109 0 -230 25l35 155q98 -22 154 -22t82.5 32t41.5 121l179 1039h-201l22 139h203l25 135q23 145 71 209q76 90 218 90q40 0 118 -20l90 -21l-34 -154q-109 25 -163 25t-79.5 -31.5t-42.5 -128.5l-18 -104h202l-24 -139h-205l-191 -1090q-24 -140 -84 -200
t-169 -60z" />
    <glyph glyph-name="circumflex" unicode="&#x2c6;" horiz-adv-x="683" 
d="M433 1427l193 -309h-112l-179 177l-171 -177h-108l187 309h190z" />
    <glyph glyph-name="caron" unicode="&#x2c7;" horiz-adv-x="683" 
d="M662 1427l-227 -309h-189l-224 309h114l206 -173l206 173h114z" />
    <glyph glyph-name="macron" unicode="&#x2c9;" horiz-adv-x="683" 
d="M680 1339v-149h-677v149h677z" />
    <glyph glyph-name="breve" unicode="&#x2d8;" horiz-adv-x="683" 
d="M341 1270q121 0 151 127h139q-24 -132 -99.5 -198t-188.5 -66t-191 68.5t-101 195.5h137q32 -127 153 -127z" />
    <glyph glyph-name="dotaccent" unicode="&#x2d9;" horiz-adv-x="683" 
d="M342 1356q51 0 87 -35t36 -85t-35.5 -84.5t-87.5 -34.5t-86.5 34.5t-34.5 84.5t35 85t86 35z" />
    <glyph glyph-name="ring" unicode="&#x2da;" horiz-adv-x="683" 
d="M338 1416q-51 0 -81.5 -31t-30.5 -79t33.5 -81.5t81.5 -33.5t82 33t34 80t-34 79.5t-85 32.5zM342 1497q78 0 133.5 -55t55.5 -134t-55.5 -135t-133.5 -56t-134 55.5t-56 134.5t56 134.5t134 55.5z" />
    <glyph glyph-name="ogonek" unicode="&#x2db;" horiz-adv-x="683" 
d="M390 -364q-84 0 -143 54t-59 144t92 185h136q-72 -98 -72 -139t30 -69.5t62 -28.5t109 22v-137q-71 -31 -155 -31z" />
    <glyph glyph-name="tilde" unicode="&#x2dc;" horiz-adv-x="683" 
d="M490 1311q61 0 74 86h78q-2 -121 -50 -181t-107 -61q-59 0 -152 40t-129 40q-70 0 -79 -80h-84q16 141 58 188.5t103 47.5t160 -40t128 -40z" />
    <glyph glyph-name="hungarumlaut" unicode="&#x2dd;" horiz-adv-x="683" 
d="M680 1422l-237 -300h-113l145 300h205zM353 1422l-239 -300h-111l143 300h207z" />
    <glyph glyph-name="pi1" unicode="&#x3c0;" horiz-adv-x="1124" 
d="M0 1063h1124v-158h-162v-905h-189v905h-426v-905h-188v905h-159v158z" />
    <glyph glyph-name="endash" unicode="&#x2013;" 
d="M-16 584h1058v-131h-1058v131z" />
    <glyph glyph-name="emdash" unicode="&#x2014;" horiz-adv-x="2048" 
d="M-16 584h2082v-131h-2082v131z" />
    <glyph glyph-name="quoteleft" unicode="&#x2018;" horiz-adv-x="449" 
d="M264 1186q0 -13 2 -23q107 -34 107 -125q0 -50 -36.5 -84t-94.5 -34t-94.5 50.5t-36.5 135.5q0 231 239 309v-31q-86 -95 -86 -198z" />
    <glyph glyph-name="quoteright" unicode="&#x2019;" horiz-adv-x="449" 
d="M78 1282q0 55 36 94t92 39t95 -54t39 -152t-64 -182.5t-176 -119.5v39q45 44 63 87t21 118q-106 34 -106 131z" />
    <glyph glyph-name="quotesinglbase" unicode="&#x201a;" horiz-adv-x="449" 
d="M78 131q0 54 36 93.5t92 39.5t95 -54t39 -152t-64 -181.5t-176 -118.5v37q45 43 63 86.5t21 118.5q-106 31 -106 131z" />
    <glyph glyph-name="quotedblleft" unicode="&#x201c;" horiz-adv-x="874" 
d="M236 1153q37 0 65.5 -34.5t28.5 -82.5t-33 -82t-89 -34t-98 56t-42 151t62.5 174.5t172.5 113.5v-43q-80 -64 -80 -168l4 -51h9zM684 1216q0 -40 4 -63q47 -3 75 -34t28 -81t-34.5 -84t-92.5 -34t-99 53t-41 129t28.5 138.5t76.5 102t135 72.5v-41q-36 -24 -58 -71
t-22 -87z" />
    <glyph glyph-name="quotedblright" unicode="&#x201d;" horiz-adv-x="874" 
d="M190 1147v22q-47 5 -74.5 36t-27.5 85t33 89.5t92 35.5t98 -53.5t39 -140.5q0 -219 -239 -301v38q79 62 79 189zM651 1145v26q-106 14 -106 121q0 54 33.5 88.5t91.5 34.5t97.5 -51.5t39.5 -149.5t-63.5 -180t-172.5 -114v38q80 70 80 187z" />
    <glyph glyph-name="quotedblbase" unicode="&#x201e;" horiz-adv-x="918" 
d="M102 142q0 54 33 90t93 36t98.5 -55t38.5 -132q0 -233 -240 -319v41q84 86 84 193l-2 24q-48 5 -76.5 36.5t-28.5 85.5zM668 0q0 10 -2 23q-49 6 -77 38t-28 84t33.5 86.5t91.5 34.5t97.5 -53t39.5 -151t-64 -182t-171 -116v37q80 90 80 199z" />
    <glyph glyph-name="dagger" unicode="&#x2020;" horiz-adv-x="1004" 
d="M214 717q-160 0 -159 90q0 42 38 68t104 26q134 0 264 -53l-25 125q-33 175 -33 259t27.5 133.5t75.5 49.5q96 0 96 -184q0 -104 -33 -250l-28 -133q137 53 264 53q63 0 103 -26.5t40 -66.5t-39 -65.5t-109 -25.5t-259 53l31 -375q31 -339 31 -530t-24.5 -262.5
t-82.5 -71.5t-81.5 67.5t-23.5 201.5t24.5 457t33.5 402l12 111q-5 -1 -25 -7q-140 -46 -222 -46z" />
    <glyph glyph-name="daggerdbl" unicode="&#x2021;" horiz-adv-x="1004" 
d="M499 -469q-96 0 -96 192q0 99 60 328q-169 -55 -253 -55q-156 0 -155 92q0 39 40 65.5t115 26.5t253 -53l-10 119l-15 116q-8 82 -8 118t16 136t17 189v16l-33 -8q-179 -45 -239 -45t-98 25t-38 65t39.5 67t123.5 27t245 -51l-37 168q-23 101 -23 179t28 122.5t73 44.5
t71.5 -45.5t26.5 -135.5t-47 -276l-14 -57q173 51 251 51t116 -26t38 -66t-39.5 -66t-123.5 -26t-242 53q0 -69 17 -187t17 -154t-10 -113l-18 -125q-6 -39 -6 -115q153 51 242 51t127 -26t38 -66q0 -88 -166 -88q-94 0 -241 53q61 -223 61 -325t-29 -148.5t-74 -46.5z" />
    <glyph glyph-name="bullet" unicode="&#x2022;" horiz-adv-x="725" 
d="M109 698q0 104 74.5 179t179.5 75t179 -74t74 -180t-75 -180t-179 -74t-178.5 75t-74.5 179z" />
    <glyph glyph-name="ellipsis" unicode="&#x2026;" horiz-adv-x="2048" 
d="M340 225q50 0 86.5 -37.5t36.5 -87.5t-35.5 -84t-87.5 -34t-86.5 34t-34.5 85t35.5 87.5t85.5 36.5zM1024 227q51 0 87 -36.5t36 -86.5t-36 -85t-87 -35t-86 35t-35 85t35 86.5t86 36.5zM1708 227q52 0 86.5 -36.5t34.5 -86.5t-34.5 -85t-86.5 -35t-87.5 34t-35.5 86
t35.5 87.5t87.5 35.5z" />
    <glyph glyph-name="perthousand" unicode="&#x2030;" horiz-adv-x="2068" 
d="M1732 457q-66 0 -112.5 -46.5t-46.5 -114.5t46 -114.5t113 -46.5t113.5 47.5t46.5 113.5t-47 113.5t-113 47.5zM1733 608q129 0 220 -91t91 -219t-90.5 -218t-220.5 -90t-221 90t-91 218t91.5 219t220.5 91zM336 1262q-67 0 -114.5 -47t-47.5 -114t48 -114t114 -47
t114 47t48 113t-47.5 114t-114.5 48zM338 1413q129 0 220 -92.5t91 -220.5t-91.5 -220t-219.5 -92t-219.5 92t-91.5 220t91 220.5t220 92.5zM996 457q-66 0 -113 -47.5t-47 -113.5t46.5 -113.5t113.5 -47.5t114 47t47 114t-47.5 114t-113.5 47zM995 608q129 0 221.5 -91
t92.5 -219t-92 -218t-222 -90t-220.5 90t-90.5 218t91 219t220 91zM1047 1417h153l-919 -1433h-156z" />
    <glyph glyph-name="guilsinglleft" unicode="&#x2039;" horiz-adv-x="641" 
d="M252 461l303 -461h-180l-301 461l301 459h180z" />
    <glyph glyph-name="guilsinglright" unicode="&#x203a;" horiz-adv-x="641" 
d="M389 459l-303 461h178l303 -461l-303 -459h-178z" />
    <glyph glyph-name="fraction1" unicode="&#x2044;" horiz-adv-x="405" 
d="M737 1416l-931 -1471h-138l931 1471h138z" />
    <glyph glyph-name="Euro" unicode="&#x20ac;" horiz-adv-x="1249" 
d="M399 704q0 -28 2 -61h570l-29 -156h-516q91 -321 377 -321q181 0 346 137v-219q-144 -102 -363 -102t-368 134t-199 371h-162l29 156h115q0 74 2 111h-146l27 155h141q61 235 215.5 370.5t366.5 135.5q159 0 350 -67l-39 -191q-174 74 -317 74q-280 0 -375 -322h594
l-29 -155h-590q-2 -22 -2 -50z" />
    <glyph glyph-name="trademark" unicode="&#x2122;" horiz-adv-x="2048" 
d="M1108 582h-125v815h201l205 -651l198 651h197v-815h-125v684l-209 -684h-123l-219 695v-695zM625 582h-136v695h-264v120h666v-120h-266v-695z" />
    <glyph glyph-name="Ohm" unicode="&#x2126;" horiz-adv-x="1573" 
d="M150 822q0 176 79.5 340.5t231 252.5t347.5 88q336 0 516 -254q131 -186 131 -448q0 -312 -195 -520q-53 -58 -149 -121l364 6v-166h-575v177q80 39 138 89t133.5 177t75.5 334q0 138 -49.5 277.5t-150 212.5t-243.5 73q-191 0 -296 -120q-146 -169 -146 -440
q0 -217 91 -372.5t251 -227.5v-180h-577v168l369 -8q-108 67 -165 130q-181 200 -181 532z" />
    <glyph glyph-name="partialdiff" unicode="&#x2202;" horiz-adv-x="1012" 
d="M232 324q0 -104 51 -158t123 -54t156 55q240 156 288 629q-244 -14 -357.5 -68t-187 -177t-73.5 -227zM649 1363q-143 0 -227 -225l-135 60q70 157 168 225t183 68q161 0 246 -142q85 -143 85 -427t-86.5 -508.5t-233.5 -331.5t-287 -107t-225 91t-85 256q0 226 153 387
q197 207 649 215q-4 168 -24 256t-68 135.5t-113 47.5z" />
    <glyph glyph-name="increment" unicode="&#x2206;" horiz-adv-x="1253" 
d="M594 1059l-447 -959h844zM668 1409l577 -1409h-1233z" />
    <glyph glyph-name="product" unicode="&#x220f;" horiz-adv-x="1686" 
d="M161 1491h1362v-1922h-191v1748h-978v-1748h-193v1922z" />
    <glyph glyph-name="summation" unicode="&#x2211;" horiz-adv-x="1460" 
d="M139 1491h1237v-164h-988l607 -775l-649 -822h1040v-161h-1264v187l620 788l-603 772v175z" />
    <glyph glyph-name="fraction" unicode="&#x2215;" horiz-adv-x="406" 
d="M598 1415h139l-930 -1468h-137z" />
    <glyph glyph-name="periodcentered" unicode="&#x2219;" horiz-adv-x="532" 
d="M266 819q46 0 78.5 -33t32.5 -79t-32.5 -78.5t-78.5 -32.5t-78 33t-32 79t32 78.5t78 32.5z" />
    <glyph glyph-name="radical" unicode="&#x221a;" horiz-adv-x="1124" 
d="M1055 1868l-307 -1946l-498 1028l-197 -96l-33 68l299 147l404 -825l260 1634z" />
    <glyph glyph-name="infinity" unicode="&#x221e;" horiz-adv-x="1460" 
d="M393 873q-51 0 -89.5 -40.5t-38.5 -112.5t40 -114.5t97 -42.5q101 0 218 153q-80 100 -128 128.5t-99 28.5zM1030 499q66 0 117.5 56t51.5 160t-52.5 160t-116.5 56q-64 1 -114 -33t-158 -181q87 -135 159 -185q47 -33 113 -33zM1030 1044q97 0 188.5 -76t91.5 -245
q0 -118 -34 -185.5t-106 -108.5t-154 -41t-152 50t-175 182q-136 -171 -289 -171q-101 0 -173.5 76.5t-72.5 190.5t72.5 190.5t173.5 76.5q153 0 289 -171q105 132 175 182t166 50z" />
    <glyph glyph-name="integral" unicode="&#x222b;" horiz-adv-x="561" 
d="M210 -73q54 0 54 198q0 37 -6 197t-6 602t17 599t43 221t67 98t91 34t91 -32.5t41 -77.5t-29 -70t-71 -25t-65 25t-44 25q-37 0 -37 -58q0 -34 19.5 -256t19.5 -639q0 -730 -109 -904q-53 -83 -153 -83q-49 0 -86 35t-37 79t26 71t62 27t67.5 -33t44.5 -33z" />
    <glyph glyph-name="approxequal" unicode="&#x2248;" horiz-adv-x="1194" 
d="M350 874q-72 0 -127 -28q-56 -28 -137 -107v204q109 121 279 121q115 0 274 -69l80 -35q62 -29 133 -29q132 0 258 135v-211q-122 -114 -276 -114q-105 0 -246 61l-62 27q-104 45 -176 45zM350 512q-72 0 -127 -28q-56 -28 -137 -107v204q109 121 279 121q115 0 274 -69
l80 -35q62 -29 133 -29q132 0 258 135v-211q-122 -114 -276 -114q-105 0 -246 61l-62 27q-104 45 -176 45z" />
    <glyph glyph-name="notequal" unicode="&#x2260;" horiz-adv-x="1195" 
d="M114 417v168h367l109 277h-476v168h542l209 535h125l-209 -535h301v-168h-366l-109 -277h475v-168h-540l-209 -536h-127l209 536h-301z" />
    <glyph glyph-name="lessequal" unicode="&#x2264;" horiz-adv-x="1195" 
d="M1082 106h-968v167h968v-167zM114 762v168l968 410v-180l-768 -315l768 -319v-179z" />
    <glyph glyph-name="greaterequal" unicode="&#x2265;" horiz-adv-x="1195" 
d="M1082 106h-968v167h968v-167zM1082 762l-968 -415v179l768 319l-768 315v180l968 -410v-168z" />
    <glyph glyph-name="lozenge" unicode="&#x25ca;" horiz-adv-x="1012" 
d="M839 763l-335 652l-335 -652l335 -652zM962 763l-397 -763h-122l-397 763l397 763h122z" />
    <glyph glyph-name="fi1" unicode="&#xf001;" 
d="M715 922h172v-922h-172v922zM551 922v-156h-205v-766h-182v766h-137v156h137v30q0 223 101 343t271 120t259 -78t92 -215h-172q-27 73 -66 104t-102 31q-203 0 -203 -301q0 -16 2 -34h205z" />
    <glyph glyph-name="fl1" unicode="&#xf002;" 
d="M713 1397h182v-1397h-182v1397zM338 922h209v-156h-209v-766h-178v766h-142v156h142v45q0 150 34 237t113 149t191 62q64 0 123 -18v-166q-52 14 -82 14q-109 1 -155 -63t-46 -219v-41z" />
    <glyph glyph-name="fi" unicode="&#xfb01;" 
d="M715 922h172v-922h-172v922zM551 922v-156h-205v-766h-182v766h-137v156h137v30q0 223 101 343t271 120t259 -78t92 -215h-172q-27 73 -66 104t-102 31q-203 0 -203 -301q0 -16 2 -34h205z" />
    <glyph glyph-name="fl" unicode="&#xfb02;" 
d="M713 1397h182v-1397h-182v1397zM338 922h209v-156h-209v-766h-178v766h-142v156h142v45q0 150 34 237t113 149t191 62q64 0 123 -18v-166q-52 14 -82 14q-110 0 -155.5 -63.5t-45.5 -218.5v-41z" />
    <glyph glyph-name="foursuperior" horiz-adv-x="662" 
d="M380 1016v172l-160 -172h160zM519 1417v-401h92v-100h-92v-236h-139v236h-348v51l420 450h67z" />
    <glyph glyph-name="commaaccent" horiz-adv-x="683" 
d="M217 -203q0 53 36 93t94 40t95 -57.5t37 -147.5t-62 -179.5t-179 -123.5v38q84 75 85 206q-106 32 -106 131z" />
    </font>
</defs>
</svg>
